<?xml version="1.0" encoding="utf-8"?>
<!-- Generator: Adobe Illustrator 19.0.0, SVG Export Plug-In . SVG Version: 6.00 Build 0)  -->
<svg version="1.1" xmlns="http://www.w3.org/2000/svg" xmlns:xlink="http://www.w3.org/1999/xlink" x="0px" y="0px"
	 viewBox="0 0 749.3 449.6" style="enable-background:new 0 0 749.3 449.6;" xml:space="preserve">
<style type="text/css">
	.st0{display:none;}
	.st1{display:inline;opacity:0.16;fill:url(#SVGID_1_);}
	.st2{fill:#FFFFFF;}
	.st3{opacity:0.15;}
	.st4{fill:url(#SVGID_2_);}
	.st5{opacity:0.15;fill:url(#SVGID_3_);}
	.st6{fill:url(#SVGID_4_);}
	.st7{fill:url(#SVGID_5_);}
	.st8{fill:url(#SVGID_6_);}
	.st9{enable-background:new    ;}
	.st10{fill:url(#SVGID_7_);}
	.st11{fill:url(#SVGID_8_);}
	.st12{fill:url(#SVGID_9_);}
	.st13{fill:url(#SVGID_10_);}
	.st14{fill:url(#SVGID_11_);}
	.st15{fill:url(#SVGID_12_);}
	.st16{fill:url(#SVGID_13_);}
	.st17{fill:url(#SVGID_14_);}
	.st18{fill:url(#SVGID_15_);}
	.st19{opacity:0.6;fill:url(#SVGID_16_);}
	.st20{opacity:0.6;fill:url(#SVGID_17_);}
	.st21{opacity:0.6;fill:url(#SVGID_18_);}
	.st22{fill:#E5DBFF;}
	.st23{fill:#CBC3E3;}
	.st24{fill:url(#SVGID_19_);}
	.st25{fill:url(#SVGID_20_);}
	.st26{fill:url(#SVGID_21_);}
	.st27{fill:#FDBBA5;}
	.st28{fill:#E69277;}
	.st29{fill:#FDA284;}
	.st30{fill:#010300;}
	.st31{fill:url(#SVGID_22_);}
	.st32{fill:url(#SVGID_23_);}
	.st33{fill:url(#SVGID_24_);}
	.st34{fill:url(#SVGID_25_);}
	.st35{fill:#191718;}
	.st36{fill:#030203;}
	.st37{fill:url(#SVGID_26_);}
	.st38{fill:#0D0A0C;}
	.st39{fill:#14160E;}
	.st40{fill:url(#SVGID_27_);}
	.st41{fill:url(#SVGID_28_);}
	.st42{clip-path:url(#SVGID_29_);enable-background:new    ;}
	.st43{fill:#2F8394;}
	.st44{fill:#308799;}
	.st45{clip-path:url(#SVGID_30_);enable-background:new    ;}
	.st46{fill:#2D7E8F;}
	.st47{fill:#2C7A8A;}
	.st48{fill:#2A7685;}
	.st49{fill:#297180;}
	.st50{clip-path:url(#SVGID_31_);enable-background:new    ;}
	.st51{clip-path:url(#SVGID_32_);enable-background:new    ;}
	.st52{fill:#47C7E2;}
	.st53{fill:url(#SVGID_33_);}
	.st54{fill:#9FA1CF;}
	.st55{clip-path:url(#SVGID_35_);enable-background:new    ;}
	.st56{fill:url(#SVGID_36_);}
	.st57{fill:url(#SVGID_37_);}
	.st58{clip-path:url(#SVGID_39_);fill:#B1B2E0;}
	.st59{fill:url(#SVGID_40_);}
	.st60{fill:#9394BA;}
	.st61{clip-path:url(#SVGID_42_);enable-background:new    ;}
	.st62{fill:url(#SVGID_43_);}
	.st63{fill:url(#SVGID_44_);}
	.st64{fill:url(#SVGID_45_);}
	.st65{fill:url(#SVGID_46_);}
	.st66{fill:url(#SVGID_47_);}
	.st67{fill:url(#SVGID_48_);}
	.st68{fill:url(#SVGID_49_);}
	.st69{fill:url(#SVGID_50_);}
	.st70{fill:url(#SVGID_51_);}
	.st71{fill:#8ECD49;}
	.st72{fill:#505CC8;}
	.st73{fill:url(#SVGID_52_);}
	.st74{fill:url(#SVGID_53_);}
	.st75{fill:url(#SVGID_54_);}
	.st76{fill:url(#SVGID_55_);}
	.st77{fill:url(#SVGID_57_);}
	.st78{fill:url(#SVGID_59_);}
	.st79{fill:url(#SVGID_61_);}
	.st80{fill:url(#SVGID_63_);}
	.st81{fill:url(#SVGID_64_);}
	.st82{fill:#7C49C2;}
	.st83{fill:url(#SVGID_65_);}
	.st84{fill:url(#SVGID_66_);}
	.st85{fill:url(#SVGID_67_);}
	.st86{clip-path:url(#SVGID_69_);enable-background:new    ;}
	.st87{fill:url(#SVGID_70_);}
	.st88{fill:url(#SVGID_71_);}
	.st89{fill:url(#SVGID_72_);}
	.st90{fill:url(#SVGID_73_);}
	.st91{fill:url(#SVGID_74_);}
	.st92{fill:url(#SVGID_75_);}
	.st93{fill:url(#SVGID_76_);}
	.st94{fill:url(#SVGID_77_);}
	.st95{fill:url(#SVGID_78_);}
	.st96{fill:url(#SVGID_79_);}
	.st97{fill:url(#SVGID_80_);}
	.st98{fill:#9E9E9E;}
	.st99{fill:url(#SVGID_81_);}
</style>
<g id="BACKGROUND" class="st0">
	
		<radialGradient id="SVGID_1_" cx="374.2805" cy="248.5126" r="250" gradientTransform="matrix(1.5 0 0 1 -187.1402 0)" gradientUnits="userSpaceOnUse">
		<stop  offset="0" style="stop-color:#4EDAF7"/>
		<stop  offset="1" style="stop-color:#505CC8"/>
	</radialGradient>
	<rect x="-0.7" y="-1.5" class="st1" width="750" height="500"/>
</g>
<g id="OBJECTS">
	<rect y="0" class="st2" width="749.3" height="449.6"/>
	<g class="st3">
		
			<linearGradient id="SVGID_2_" gradientUnits="userSpaceOnUse" x1="388.0484" y1="264.22" x2="687.759" y2="264.22" gradientTransform="matrix(-1 0 0 1 749.2805 0)">
			<stop  offset="0" style="stop-color:#7F6BE4"/>
			<stop  offset="1" style="stop-color:#5235E4"/>
		</linearGradient>
		<polygon class="st4" points="272.9,78.9 313.9,269.7 61.5,449.6 156.2,449.6 361.2,279.2 		"/>
	</g>
	<g>
		
			<linearGradient id="SVGID_3_" gradientUnits="userSpaceOnUse" x1="437.7383" y1="368.0426" x2="-631.8737" y2="-192.3857" gradientTransform="matrix(-1 0 0 1 749.2805 0)">
			<stop  offset="0" style="stop-color:#CA6CD7"/>
			<stop  offset="1.630282e-002" style="stop-color:#CA6ED7"/>
			<stop  offset="0.6856" style="stop-color:#DAB0E0"/>
			<stop  offset="1" style="stop-color:#E0CAE3"/>
		</linearGradient>
		<polygon class="st5" points="420.6,0 273.4,79.7 361,279.8 155.6,449.6 749.3,449.6 749.3,0 		"/>
	</g>
	<g>
		<g>
			<g>
				
					<linearGradient id="SVGID_4_" gradientUnits="userSpaceOnUse" x1="312.1128" y1="143.8342" x2="321.6864" y2="143.8342" gradientTransform="matrix(-1 0 0 1 749.2805 0)">
					<stop  offset="0.1592" style="stop-color:#4EDAF7"/>
					<stop  offset="1" style="stop-color:#505CC8"/>
				</linearGradient>
				<polygon class="st6" points="437,116.1 427.6,110.7 427.8,171.5 437.2,177 				"/>
			</g>
			<g>
				
					<linearGradient id="SVGID_5_" gradientUnits="userSpaceOnUse" x1="299.0513" y1="109.5723" x2="321.6864" y2="109.5723" gradientTransform="matrix(-1 0 0 1 749.2805 0)">
					<stop  offset="0.1592" style="stop-color:#4EDAF7"/>
					<stop  offset="1" style="stop-color:#505CC8"/>
				</linearGradient>
				<polygon class="st7" points="450.2,108.5 440.8,103 427.6,110.7 437,116.1 				"/>
			</g>
			<g>
				
					<linearGradient id="SVGID_6_" gradientUnits="userSpaceOnUse" x1="298.8793" y1="142.7453" x2="312.2859" y2="142.7453" gradientTransform="matrix(-1 0 0 1 749.2805 0)">
					<stop  offset="0.1592" style="stop-color:#4EDAF7"/>
					<stop  offset="1" style="stop-color:#505CC8"/>
				</linearGradient>
				<polygon class="st8" points="437,116.1 437.2,177 450.4,169.4 450.2,108.5 				"/>
			</g>
		</g>
		<g class="st9">
			<g>
				
					<linearGradient id="SVGID_7_" gradientUnits="userSpaceOnUse" x1="332.9426" y1="136.2888" x2="342.6254" y2="136.2888" gradientTransform="matrix(-1 0 0 1 749.2805 0)">
					<stop  offset="0" style="stop-color:#CA6CD7"/>
					<stop  offset="1.630282e-002" style="stop-color:#CA6ED7"/>
					<stop  offset="0.6856" style="stop-color:#DAB0E0"/>
					<stop  offset="1" style="stop-color:#E0CAE3"/>
				</linearGradient>
				<polygon class="st10" points="416.1,89 406.7,83.5 406.9,183.6 416.3,189 				"/>
			</g>
			<g>
				
					<linearGradient id="SVGID_8_" gradientUnits="userSpaceOnUse" x1="319.9749" y1="82.4521" x2="342.6254" y2="82.4521" gradientTransform="matrix(-1 0 0 1 749.2805 0)">
					<stop  offset="0" style="stop-color:#CA6CD7"/>
					<stop  offset="1.630282e-002" style="stop-color:#CA6ED7"/>
					<stop  offset="0.6856" style="stop-color:#DAB0E0"/>
					<stop  offset="1" style="stop-color:#E0CAE3"/>
				</linearGradient>
				<polygon class="st11" points="429.3,81.4 419.9,75.9 406.7,83.5 416.1,89 				"/>
			</g>
			<g>
				
					<linearGradient id="SVGID_9_" gradientUnits="userSpaceOnUse" x1="319.6921" y1="135.1952" x2="333.2264" y2="135.1952" gradientTransform="matrix(-1 0 0 1 749.2805 0)">
					<stop  offset="0" style="stop-color:#CA6CD7"/>
					<stop  offset="1.630282e-002" style="stop-color:#CA6ED7"/>
					<stop  offset="0.6856" style="stop-color:#DAB0E0"/>
					<stop  offset="1" style="stop-color:#E0CAE3"/>
				</linearGradient>
				<polygon class="st12" points="416.1,89 416.3,189 429.6,181.4 429.3,81.4 				"/>
			</g>
		</g>
		<g class="st9">
			<g>
				
					<linearGradient id="SVGID_10_" gradientUnits="userSpaceOnUse" x1="355.6451" y1="186.3649" x2="365.1197" y2="186.3649" gradientTransform="matrix(-1 0 0 1 749.2805 0)">
					<stop  offset="0" style="stop-color:#7F6BE4"/>
					<stop  offset="1" style="stop-color:#5235E4"/>
				</linearGradient>
				<polygon class="st13" points="393.6,176.1 384.2,170.6 384.2,196.7 393.6,202.1 				"/>
			</g>
			<g>
				
					<linearGradient id="SVGID_11_" gradientUnits="userSpaceOnUse" x1="342.4692" y1="169.496" x2="365.1197" y2="169.496" gradientTransform="matrix(-1 0 0 1 749.2805 0)">
					<stop  offset="0" style="stop-color:#7F6BE4"/>
					<stop  offset="1" style="stop-color:#5235E4"/>
				</linearGradient>
				<polygon class="st14" points="406.8,168.4 397.4,162.9 384.2,170.6 393.6,176.1 				"/>
			</g>
			<g>
				
					<linearGradient id="SVGID_12_" gradientUnits="userSpaceOnUse" x1="342.3935" y1="185.2714" x2="355.7182" y2="185.2714" gradientTransform="matrix(-1 0 0 1 749.2805 0)">
					<stop  offset="0" style="stop-color:#7F6BE4"/>
					<stop  offset="1" style="stop-color:#5235E4"/>
				</linearGradient>
				<polygon class="st15" points="393.6,176.1 393.6,202.1 406.9,194.5 406.8,168.4 				"/>
			</g>
		</g>
		<g class="st9">
			<g>
				
					<linearGradient id="SVGID_13_" gradientUnits="userSpaceOnUse" x1="376.4566" y1="157.0676" x2="386.1654" y2="157.0676" gradientTransform="matrix(-1 0 0 1 749.2805 0)">
					<stop  offset="0" style="stop-color:#6348B0"/>
					<stop  offset="0.9525" style="stop-color:#423075"/>
				</linearGradient>
				<polygon class="st16" points="372.5,105.4 363.1,100 363.4,208.7 372.8,214.2 				"/>
			</g>
			<g>
				
					<linearGradient id="SVGID_14_" gradientUnits="userSpaceOnUse" x1="363.5148" y1="98.8865" x2="386.1654" y2="98.8865" gradientTransform="matrix(-1 0 0 1 749.2805 0)">
					<stop  offset="0" style="stop-color:#6348B0"/>
					<stop  offset="0.9525" style="stop-color:#423075"/>
				</linearGradient>
				<polygon class="st17" points="385.8,97.8 376.4,92.3 363.1,100 372.5,105.4 				"/>
			</g>
			<g>
				
					<linearGradient id="SVGID_15_" gradientUnits="userSpaceOnUse" x1="363.2075" y1="155.9741" x2="376.764" y2="155.9741" gradientTransform="matrix(-1 0 0 1 749.2805 0)">
					<stop  offset="0" style="stop-color:#6348B0"/>
					<stop  offset="0.9525" style="stop-color:#423075"/>
				</linearGradient>
				<polygon class="st18" points="372.5,105.4 372.8,214.2 386.1,206.5 385.8,97.8 				"/>
			</g>
		</g>
	</g>
	
		<linearGradient id="SVGID_16_" gradientUnits="userSpaceOnUse" x1="340.508" y1="441.9413" x2="308.1136" y2="385.8326" gradientTransform="matrix(-1 0 0 1 749.2805 0)">
		<stop  offset="0" style="stop-color:#2E3192;stop-opacity:0"/>
		<stop  offset="0.9294" style="stop-color:#2E3192;stop-opacity:0.9294"/>
		<stop  offset="1" style="stop-color:#2E3192"/>
	</linearGradient>
	<polygon class="st19" points="484.8,411 422,447.3 365.1,416.8 423.9,382.7 	"/>
	
		<linearGradient id="SVGID_17_" gradientUnits="userSpaceOnUse" x1="451.4273" y1="397.604" x2="403.6938" y2="314.9272" gradientTransform="matrix(-1 0 0 1 749.2805 0)">
		<stop  offset="0" style="stop-color:#CA6CD7;stop-opacity:0"/>
		<stop  offset="0.8533" style="stop-color:#CA6CD7;stop-opacity:0.8533"/>
		<stop  offset="1" style="stop-color:#CA6CD7"/>
	</linearGradient>
	<polygon class="st20" points="383.8,342.4 299.9,390.2 257.3,374.2 353.6,319.5 	"/>
	
		<linearGradient id="SVGID_18_" gradientUnits="userSpaceOnUse" x1="186.698" y1="425.2217" x2="156.4034" y2="372.7499" gradientTransform="matrix(-0.9932 0.1164 0.1164 0.9932 699.2742 -18.1835)">
		<stop  offset="0" style="stop-color:#2E3192;stop-opacity:0"/>
		<stop  offset="0.8542" style="stop-color:#2E3192;stop-opacity:0.8542"/>
		<stop  offset="1" style="stop-color:#2E3192"/>
	</linearGradient>
	<polygon class="st21" points="616.3,385.1 551.9,421 534.2,411.4 597.6,374.7 	"/>
	<g>
		<g>
			<path class="st22" d="M557.6,119.2c-5-2.9-9.3-2.3-11.6,1c-1.6-2.6-3.7-4.9-6.1-6.3c-5-2.9-9.1-0.6-9.1,5.2c0,0.3,0,0.5,0,0.8
				c-4.9-1.4-8.5,1.1-8.6,6.7c0,6.6,5.2,15,11.6,18.7c2.5,1.5,4.9,2,6.8,1.6c3.9,3.7,8.7,7.3,13.9,10.3c7,4,13.2,6.1,17.6,6.2
				c0.8,0.6,1.6,1.2,2.5,1.7c6.4,3.7,11.6,2,11.6-3.8c0-4.6-3.3-10.5-7.9-14.5c0-0.1,0-0.1,0-0.2c0-4.9-3.4-10.8-7.6-13.2
				c-0.7-0.4-1.3-0.7-1.9-0.8C566.4,127,562.3,121.9,557.6,119.2z"/>
		</g>
		<g>
			<path class="st22" d="M630.8,105.3c-5-2.9-9.3-2.3-11.6,1c-1.6-2.6-3.7-4.9-6.1-6.3c-5-2.9-9.1-0.6-9.1,5.2c0,0.3,0,0.5,0,0.8
				c-4.9-1.4-8.5,1.1-8.6,6.7c0,6.6,5.2,15,11.6,18.7c2.5,1.5,4.9,2,6.8,1.6c3.9,3.7,8.7,7.3,13.9,10.3c7,4,13.2,6.1,17.6,6.2
				c0.8,0.6,1.6,1.2,2.5,1.7c6.4,3.7,11.6,2,11.6-3.8c0-4.6-3.3-10.5-7.9-14.5c0-0.1,0-0.1,0-0.2c0-4.9-3.4-10.8-7.6-13.2
				c-0.7-0.4-1.3-0.7-1.9-0.8C639.6,113.1,635.5,108,630.8,105.3z"/>
		</g>
		<g>
			<path class="st22" d="M701.3,176.2c-2.9-1.7-5.4-1.3-6.8,0.6c-0.9-1.5-2.2-2.9-3.6-3.7c-2.9-1.7-5.3-0.3-5.3,3c0,0.2,0,0.3,0,0.5
				c-2.9-0.8-5,0.7-5,3.9c0,3.9,3,8.8,6.8,11c1.5,0.9,2.8,1.1,4,1c2.3,2.2,5.1,4.3,8.1,6c4.1,2.4,7.7,3.6,10.3,3.6
				c0.5,0.4,1,0.7,1.5,1c3.7,2.2,6.8,1.2,6.8-2.2c0-2.7-1.9-6.1-4.6-8.5c0,0,0-0.1,0-0.1c0-2.8-2-6.3-4.5-7.7
				c-0.4-0.2-0.8-0.4-1.1-0.5C706.4,180.8,704,177.8,701.3,176.2z"/>
		</g>
	</g>
	<g>
		<g>
			<g>
				<g class="st9">
					<g>
						<path class="st22" d="M386.7,223.1c-6.6,3.2-9.8,7.4-7.1,9.2l62.8,42.3c2.7,1.8,10.3,0.7,16.8-2.6l96.7-47.5
							c6.6-3.2,9.8-7.4,7.1-9.2L500.2,173c-2.7-1.8-10.3-0.7-16.9,2.6L386.7,223.1z"/>
					</g>
				</g>
			</g>
			<g>
				<g class="st9">
					<g>
						<path class="st2" d="M389.6,223.1c-6.6,3.2-9.8,7.4-7.1,9.2l62.8,42.3c2.7,1.8,10.3,0.7,16.8-2.6l96.7-47.5
							c6.6-3.2,9.8-7.4,7.1-9.2L503.1,173c-2.7-1.8-10.3-0.7-16.9,2.6L389.6,223.1z"/>
					</g>
				</g>
			</g>
			<g>
				<g class="st9">
					<g>
						<path class="st23" d="M391.2,222.9c-6.4,3.7-9.3,8-6.4,9.6l65.5,38c2.8,1.6,10.3,0,16.6-3.7l93.3-53.9c6.4-3.7,9.3-8,6.4-9.6
							l-65.5-38c-2.8-1.6-10.3,0-16.6,3.7L391.2,222.9z"/>
					</g>
				</g>
			</g>
			<g>
				<g class="st9">
					<g>
						<path class="st22" d="M392.7,219.9c-6.4,3.7-9.3,8-6.4,9.6l65.5,38c2.8,1.6,10.3,0,16.6-3.7l93.3-53.9c6.4-3.7,9.3-8,6.4-9.6
							l-65.5-38c-2.8-1.6-10.3,0-16.6,3.7L392.7,219.9z"/>
					</g>
				</g>
			</g>
			<g>
				<g class="st9">
					<g>
						<path class="st2" d="M392.7,217c-6.4,3.7-9.3,8-6.4,9.6l65.5,38c2.8,1.6,10.3,0,16.6-3.7l93.3-53.9c6.4-3.7,9.3-8,6.4-9.6
							l-65.5-38c-2.8-1.6-10.3,0-16.6,3.7L392.7,217z"/>
					</g>
				</g>
			</g>
			<g>
				<g>
					<path class="st22" d="M493.2,167.3c-0.5,0.3,6.9,5,16.4,10.5l18.7,10.9c9.5,5.5,17.6,9.8,18,9.5l4.5-2.6
						c0.4-0.3-6.9-5-16.4-10.5l-18.7-10.9c-9.5-5.5-17.6-9.8-18.1-9.5L493.2,167.3z"/>
				</g>
				<g>
					<path class="st22" d="M508.6,188.3c-0.2,0.1,4.9,3.3,11.4,7.1l12.8,7.5c6.5,3.8,12,6.8,12.3,6.6l2.3-1.3
						c0.2-0.1-4.9-3.3-11.4-7.1l-12.8-7.5c-6.5-3.8-12-6.8-12.2-6.7L508.6,188.3z"/>
				</g>
				<g>
					<path class="st22" d="M504.5,201.2c-0.2,0.1,3.8,2.7,9,5.7l10.2,5.9c5.2,3,9.5,5.3,9.8,5.2l2.3-1.3c0.2-0.1-3.8-2.7-9-5.7
						l-10.2-5.9c-5.2-3-9.5-5.3-9.8-5.2L504.5,201.2z"/>
				</g>
				<g>
					<path class="st22" d="M470.3,221c-0.2,0.1,3.8,2.7,9,5.7l10.1,5.9c5.2,3,9.5,5.3,9.8,5.2l2.3-1.3c0.2-0.1-3.8-2.7-9-5.7
						l-10.1-5.9c-5.2-3-9.5-5.3-9.8-5.2L470.3,221z"/>
				</g>
				<g>
					<path class="st22" d="M493.4,187c-0.2,0.1,6.2,4.1,14.4,8.9l16.1,9.3c8.2,4.8,15,8.5,15.2,8.4l2.3-1.3
						c0.2-0.1-6.2-4.1-14.4-8.9l-16.1-9.3c-8.2-4.8-15-8.5-15.2-8.4L493.4,187z"/>
				</g>
				<g>
					<path class="st22" d="M487.7,214.9c-0.2,0.1,3.3,2.4,7.9,5.1l9,5.2c4.6,2.7,8.5,4.7,8.7,4.6l2.3-1.3c0.2-0.1-3.3-2.4-7.9-5.1
						l-9-5.2c-4.6-2.7-8.5-4.7-8.7-4.6L487.7,214.9z"/>
				</g>
				<g>
					<path class="st22" d="M473.7,198.8c-0.2,0.1,6.2,4.1,14.4,8.9l16.1,9.3c8.2,4.8,15,8.5,15.2,8.4l2.3-1.3
						c0.2-0.1-6.2-4.1-14.4-8.9l-16.1-9.3c-8.2-4.8-15-8.5-15.3-8.4L473.7,198.8z"/>
				</g>
				<g>
					<path class="st22" d="M460.5,206.7c-0.2,0.1,6.2,4.1,14.4,8.9l16.1,9.3c8.2,4.8,15,8.5,15.2,8.4l2.3-1.3
						c0.2-0.1-6.2-4.1-14.4-8.9l-16.1-9.3c-8.2-4.8-15-8.5-15.2-8.4L460.5,206.7z"/>
				</g>
			</g>
		</g>
	</g>
	<g>
		<g class="st9">
			
				<linearGradient id="SVGID_19_" gradientUnits="userSpaceOnUse" x1="335.1554" y1="407.6129" x2="178.2445" y2="382.6869" gradientTransform="matrix(-1 0 0 1 749.2805 0)">
				<stop  offset="0" style="stop-color:#6348B0"/>
				<stop  offset="0.9525" style="stop-color:#423075"/>
			</linearGradient>
			<path class="st24" d="M416.5,389.2c0-0.2,0-0.3,0-0.5c3.1,2.5,6.8,4.3,10.3,6.3c8.8,5.2,18.2,10.1,27.1,15.2
				c2.4,1.4,4.2,3.2,6.7,4.5c4.5,2.3,9.1-0.4,13.3-2.1c1.5-0.6,2.3-2.1,3.7-3c1.8-1.2,4.1-1.6,6-2.6c6.3-3.3,12.4-7.2,18.6-10.7
				c7.2-4.1,14.3-8.3,21.5-12.5c5.2-3,10.4-6,15.6-9c4.9-2.9,10.2-5.5,14.8-8.9c1.2-0.9,3.4-1.5,3.4-3.2l0.3,4.5
				c0,1.4-3.4,3.7-7.7,6.1c0,0-75.9,44.8-76.3,45c-0.1,0.1-5.1,3.2-8.4,3.2c-2.7,0-5.7-1.8-7.9-3c-3.6-2-36.5-21.3-39-22.9
				c-1.4-0.9-1.9-1.4-1.8-3C416.5,391.4,416.6,390.3,416.5,389.2z"/>
			<g>
				
					<linearGradient id="SVGID_20_" gradientUnits="userSpaceOnUse" x1="192.0064" y1="375.5699" x2="332.8172" y2="375.5699" gradientTransform="matrix(-1 0 0 1 749.2805 0)">
					<stop  offset="0" style="stop-color:#6348B0"/>
					<stop  offset="0.9525" style="stop-color:#423075"/>
				</linearGradient>
				<path class="st25" d="M423.9,382.7c-5.2,3-9.5,5.2-6.4,7.2l44.9,26.1c3.3,1.8,7.2-0.7,12.4-3.7l75.3-43.5c5.2-3,8.8-5.3,6.4-7.2
					l-44.9-26.1c-3.4-2.4-7.2,0.7-12.4,3.7L423.9,382.7z"/>
			</g>
			<g>
				<path class="st2" d="M432.6,380.3c-4.7,2.7-8.6,4.8-5.8,6.5l40.6,23.6c3,1.8,6.5-0.6,11.2-3.4l68.1-39.3
					c4.7-2.7,8.5-4.1,5.8-6.5L512,337.6c-3.2-2.1-6.5,0.6-11.2,3.4L432.6,380.3z"/>
			</g>
		</g>
	</g>
	<g>
		
			<linearGradient id="SVGID_21_" gradientUnits="userSpaceOnUse" x1="303.8903" y1="400.2715" x2="310.0731" y2="400.2715" gradientTransform="matrix(-1 0 0 1 749.2805 0)">
			<stop  offset="0" style="stop-color:#6348B0"/>
			<stop  offset="0.9525" style="stop-color:#423075"/>
		</linearGradient>
		<path class="st26" d="M440.1,399c-1.2,0.7-1.2,1.8,0,2.5c1.2,0.7,3.2,0.7,4.4,0c1.2-0.7,1.2-1.8,0-2.5
			C443.3,398.3,441.3,398.3,440.1,399z"/>
	</g>
	<g>
		<path class="st22" d="M513.4,346.4c-0.2,0.1,4.3,3,10.2,6.4l11.5,6.7c5.9,3.4,10.8,6.1,11,5.9l2.3-1.3c0.2-0.1-4.3-3-10.2-6.4
			l-11.5-6.7c-5.9-3.4-10.8-6.1-11-5.9L513.4,346.4z"/>
	</g>
	<g>
		<path class="st22" d="M503,347.1c-0.2,0.1,5,3.4,11.7,7.3l13.2,7.6c6.7,3.9,12.3,6.9,12.5,6.8l2.3-1.3c0.2-0.1-5-3.4-11.7-7.3
			l-13.2-7.6c-6.7-3.9-12.3-6.9-12.6-6.8L503,347.1z"/>
	</g>
	<g>
		<path class="st22" d="M450.1,375.6c-0.1,0.1,2.6,1.8,6,3.8l6.8,4c3.5,2,6.4,3.6,6.6,3.5l1.5-0.9c0.1-0.1-2.6-1.8-6-3.8l-6.8-4
			c-3.5-2-6.4-3.6-6.6-3.5L450.1,375.6z"/>
	</g>
	<g>
		<path class="st22" d="M450.1,381.2c-0.1,0.1,2,1.4,4.7,3l5.3,3.1c2.7,1.6,5,2.8,5.2,2.7l1.4-0.8c0.1-0.1-2-1.4-4.7-3l-5.3-3.1
			c-2.7-1.6-5-2.8-5.2-2.7L450.1,381.2z"/>
	</g>
	<g>
		<path class="st22" d="M441.3,381.2c-0.1,0.1,2.5,1.8,6,3.8l6.8,3.9c3.4,2,6.3,3.6,6.5,3.5l1.4-0.8c0.1-0.1-2.5-1.8-6-3.8l-6.8-3.9
			c-3.4-2-6.3-3.5-6.5-3.5L441.3,381.2z"/>
	</g>
	<g>
		<path class="st22" d="M483.3,378.7c-2.7,1.6-2.3,4.4,1.1,6.3l6.5,3.8c3.3,1.9,8.2,2.2,11,0.6l27.6-15.9c2.7-1.6,2.2-4.4-1.1-6.3
			l-6.5-3.8c-3.3-1.9-8.2-2.2-10.9-0.6L483.3,378.7z"/>
	</g>
	<g>
		<path class="st22" d="M461.7,366.5c-2.7,1.6-2.2,4.4,1.1,6.3l6.5,3.8c3.3,1.9,8.2,2.2,10.9,0.6l27.6-15.9c2.7-1.6,2.2-4.4-1.1-6.3
			l-6.5-3.8c-3.3-1.9-8.2-2.2-10.9-0.6L461.7,366.5z"/>
	</g>
	<g>
		<path class="st22" d="M459.9,395.2c-1.3,0.8-0.3,2.6,2.3,4.2l5.2,3c2.6,1.5,5.8,2.1,7.2,1.4l13.5-7.8c1.3-0.8,0.3-2.6-2.3-4.2
			l-5.2-3c-2.6-1.5-5.8-2.1-7.2-1.4L459.9,395.2z"/>
	</g>
	<g id="XMLID_1_">
		<g>
			<path class="st27" d="M444,240.5c-0.1-0.8-0.3-1.8-0.2-2.6c0.1-0.3,0.2-0.5,0.4-0.7c0.2,0.6,0.8,1.3,0.9,1.9
				c0.2,1.2,0,2.4-0.1,3.5c0,0.3,0,0.6,0,0.8C444.4,242.7,444.2,241.5,444,240.5z"/>
			<path class="st28" d="M442.1,243.6c0.9,0.3,2.3,0.9,2.7,1.5c-0.1,0.2-0.3,0.3-0.5,0.4c0,0-1.1,0.3-2.2,0.4
				C442.2,245.1,442.1,244.3,442.1,243.6z"/>
			<path class="st29" d="M442.6,240.7c0.1,0.3,0.2,0.7,0.2,1c0.3-0.2,0.7-0.5,0.9-0.5c-0.1-0.8-0.4-2-0.4-3.7c0-0.9,0.7-1.4,0.2-3
				c0,0,0.1-0.1,0.1-0.1c0.2,0.6,0.5,1.2,0.7,1.8c-0.2,0.3-0.1,0.6,0,1c-0.2,0.2-0.3,0.5-0.4,0.7c-0.1,0.8,0.1,1.8,0.2,2.6
				c0.2,1,0.3,2.2,1,2.9c0.1,0.7,0.1,1.3-0.2,1.7c-0.5-0.6-1.9-1.2-2.7-1.5c0-0.2,0-0.4,0-0.6c-0.2,0.1-0.4-0.2-0.6-0.5
				c-0.3-0.5-0.5-1.3-0.6-1.8c0-0.3-0.1-0.5-0.1-0.6C440.9,238.2,442.3,239.6,442.6,240.7L442.6,240.7z"/>
			<path class="st30" d="M458.8,341.8c-0.5-0.4-1.1-0.6-1.8-0.6c-0.2,0-0.4,0-0.6,0c-0.1,0-0.1,0-0.2,0c-1.3-0.1-3.1-1.2-4.3-1.5
				c-1.6,1.9-3.8,3-5.6,3.3c-0.9,0.2-1.6,0.2-2.1,0c-0.2-0.1-0.4-0.2-0.5-0.3c0,0.4-0.1,0.8-0.2,1.3c-0.1,0.6-0.1,1.1-0.1,1.5
				c1.5,0.6,1.7,0.7,3.4,0.8c0.3,0,1.4,0,1.4,0c0.3-0.2,0.3-0.6,0.5-0.7c0.6-0.3,1.4,0,1.9,0.2c0.5,0.1,0.4,0.2,0.9,0.2
				c0.3,0,0.8-0.1,1.2-0.1c0.9-0.1,1.9-0.3,2.8-0.5c0.8-0.2,1.6-0.4,2.4-0.7c0.9-0.4,1.5-1.2,1.5-2.2c0,0,0,0,0,0c0,0,0,0,0,0
				c0,0,0,0,0-0.1C459.3,342.3,459,342.1,458.8,341.8z"/>
			<g>
				<path class="st27" d="M460.9,263.2c-0.6,0.4-1.1,0.8-1.7,1.3c-0.2,0-0.5,0-0.7,0c-0.5,0.3-1.2,0.5-1.9,0.7c0,0,0,0,0,0
					c-1.3,0.6-4,0.1-5.3-0.5l0,0c0.3-1.2,0.3-2.5,0-3.7c0.3-0.3,0.4-0.6,0.6-0.9c0,0,0.1-0.1,0.1-0.1c0.1-0.1,0.2-0.2,0.3-0.2
					c0.1-0.1,0.3-0.1,0.5-0.1c0.5,0,0.8,0.4,1.4,0.3c0.5-0.1,1-0.6,1.3-0.9c0.5,0.9,0.4,1.5-0.1,1.8c-0.3,0.2-0.6,0.3-1,0.4l0,0
					c-0.1,0-0.1,0-0.2,0c0.1,0.1,0.2,0.3,0.3,0.4c0.1,0.2,0.2,0.5,0.3,0.7c0,0.1,0.1,0.1,0.1,0.2c1.3,0.3,2.5,0.4,3.7,0.8
					c0.2-0.1,0.3-0.2,0.5-0.3C459.8,263,460.4,263.1,460.9,263.2z"/>
				
					<linearGradient id="SVGID_22_" gradientUnits="userSpaceOnUse" x1="401.7908" y1="309.0727" x2="394.7051" y2="309.7073" gradientTransform="matrix(0.4003 -0.9164 0.9164 0.4003 -2.5202 499.5432)">
					<stop  offset="0" style="stop-color:#000C6E"/>
					<stop  offset="1" style="stop-color:#2836A8"/>
				</linearGradient>
				<path class="st31" d="M428.3,250.9c0,0,4,5.3,13.1,15.3l10.9-1c0,0,3.3-3.7,1.3-5.9c-2.2-2.5,0,0,0,0l-9.1-0.1l-8.2-10.8
					C436.3,248.4,428.7,244.3,428.3,250.9z"/>
			</g>
			<path class="st29" d="M442.2,245.9c0,0.7,0.1,1.4,0.1,2c-0.9-0.4-1.8-0.8-2.8-0.9c-0.5-0.1-1-0.2-1.4-0.3
				c0.3-0.4,0.6-0.8,0.8-1.2c0.4,0,0.8-0.1,1.2-0.3c0.2-0.7,1.1-2,1.5-2.7c0.2,0.3,0.4,0.6,0.6,0.5c0,0.2,0,0.4,0,0.6
				C442.1,244.3,442.2,245.1,442.2,245.9z"/>
			
				<linearGradient id="SVGID_23_" gradientUnits="userSpaceOnUse" x1="367.2936" y1="318.6665" x2="381.4493" y2="318.6665" gradientTransform="matrix(0.9992 -3.950000e-002 3.950000e-002 0.9992 61.511 13.5148)">
				<stop  offset="0" style="stop-color:#6348B0"/>
				<stop  offset="0.9525" style="stop-color:#423075"/>
			</linearGradient>
			<path class="st32" d="M447.5,293.7c-1.8,0.2-3.6,0.1-5.3-0.2c-0.7-0.1-1.4-0.3-2.1-0.5c0.1,3.1,0.9,11.3,1.4,17.4
				c0,0.3,0,0.6,0.1,0.9c0.3,2.8,1,5.6,1.2,8.6c0,0-0.7,6.9-0.5,9.8c0.1,1.8,0.2,3.5,0.4,5.1c0.4,4,0.8,6.8,0.9,7.3
				c-0.1,0.2,0,0.5,0.1,0.6c0.1,0.1,0.3,0.2,0.5,0.3c0.5,0.2,1.3,0.2,2.1,0c1.8-0.3,4.1-1.4,5.6-3.3c1-15.2,1-32.4,2.3-48.8
				C452.1,292.6,449.8,293.4,447.5,293.7z"/>
			<path class="st27" d="M438.9,245.5c-0.2,0.4-0.5,0.9-0.8,1.2c-0.9-0.2-1.8-0.2-2.7-0.2c0.1-0.4,0.1-0.8,0.1-1.2
				c0.6,0.1,1,0.2,1.8,0.2c0.4,0,0.8,0,1.3,0C438.6,245.5,438.7,245.5,438.9,245.5z"/>
			
				<linearGradient id="SVGID_24_" gradientUnits="userSpaceOnUse" x1="303.3173" y1="248.4418" x2="315.6606" y2="248.4418" gradientTransform="matrix(-1 0 0 1 749.2805 0)">
				<stop  offset="0" style="stop-color:#7F6BE4"/>
				<stop  offset="1" style="stop-color:#5235E4"/>
			</linearGradient>
			<path class="st33" d="M438.1,246.7c0.5,0.1,1,0.2,1.4,0.3c1,0.2,1.9,0.5,2.8,0.9c1.3,0.6,2.5,1.5,3.7,2.4c-1.6-0.7-3.2-1.4-5-1.8
				c-1.3-0.3-2.6-0.6-3.9-0.8c-1.2-0.2-2.3-0.3-3.5-0.4l0-0.3c0,0,0.1,0,0.1-0.1c0.5-0.2,1-0.4,1.5-0.4
				C436.2,246.5,437.1,246.6,438.1,246.7z"/>
			
				<linearGradient id="SVGID_25_" gradientUnits="userSpaceOnUse" x1="357.049" y1="271.7454" x2="382.7117" y2="271.7454" gradientTransform="matrix(0.9992 -3.950000e-002 3.950000e-002 0.9992 61.511 13.5148)">
				<stop  offset="0" style="stop-color:#6348B0"/>
				<stop  offset="0.9525" style="stop-color:#423075"/>
			</linearGradient>
			<path class="st34" d="M447.2,261.1c-4.4-2.7-0.8-11,3.5-8.8c-1-0.7-2.6-1.2-3.7-1.6c-0.4-0.1-0.7-0.3-1.1-0.4
				c-1.6-0.7-3.2-1.4-5-1.8c-1.3-0.3-2.6-0.6-3.9-0.8c-1.2-0.2-2.3-0.3-3.5-0.4c-0.9-0.1-1.8-0.1-2.7-0.1c-1.5,0-2.2,1.1-2.5,2.6
				c0,0,0,0,0,0c0,0.1,0,0.2,0,0.3c0,0,0,0,0,0c0,0.1,0,0.1-0.1,0.2c-0.3,2.2,0.3,5,0.8,6.8c0.6,2.8,1.4,5.3,2.2,8.1
				c0,0.1,0.1,0.3,0.1,0.4c0.4,1.2,0.7,2.5,1,3.9l-0.1,0c0.6,2.3,1.2,12.4,0.7,20.2c0.2,0.2,0.7,0.6,1.5,1c0.5,0.3,1,0.5,1.7,0.8
				c0.5,0.2,1,0.5,1.6,0.7c0.5,0.2,1,0.4,1.5,0.5c0.2,0.1,0.4,0.1,0.6,0.2c0.7,0.2,1.4,0.3,2.1,0.5c1.7,0.3,3.5,0.4,5.3,0.2
				c2.3-0.3,4.6-1.1,6.7-2.8c0.2-0.1,0.4-0.3,0.6-0.4c0-0.7,0-4,0-8.4c0-3.8,0-8.5-0.1-12.8C452.2,266.5,449.7,264.3,447.2,261.1z
				 M438.1,284c0-0.3,0-0.6,0-0.8c0,0,0,0,0,0.1C438.1,283.5,438.1,283.7,438.1,284z"/>
			<path class="st35" d="M428.4,250.2C428.4,250.2,428.4,250.2,428.4,250.2c0,0.1,0,0.1,0,0.2C428.3,250.3,428.3,250.3,428.4,250.2z
				"/>
			<path class="st36" d="M432,335.9c-0.9,0.2-1.7,0.2-2.3,0.1c0,0,0-0.1,0-0.1C430.5,335.8,431.3,335.9,432,335.9z"/>
			
				<linearGradient id="SVGID_26_" gradientUnits="userSpaceOnUse" x1="354.2098" y1="314.31" x2="368.0005" y2="314.31" gradientTransform="matrix(0.9992 -3.950000e-002 3.950000e-002 0.9992 61.511 13.5148)">
				<stop  offset="0" style="stop-color:#6348B0"/>
				<stop  offset="0.9525" style="stop-color:#423075"/>
			</linearGradient>
			<path class="st37" d="M441.5,310.5c-0.4-6.1-1.2-14.3-1.4-17.4c-0.2-0.1-0.4-0.1-0.6-0.2c-0.5-0.2-1-0.3-1.5-0.5
				c-0.6-0.2-1.1-0.4-1.6-0.7c-0.6-0.3-1.2-0.6-1.7-0.8c-1,6.2-2,14.9-2.1,20.8c0,0-3.3,11.8-3.7,19.3c-0.1,1.3-0.1,2.7-0.3,3.8
				c0,0.1,0,0.2,0.1,0.3c0.1,0.2,0.3,0.4,0.5,0.5c0.1,0,0.3,0,0.5,0c0.8,0.1,1.5,0.1,2.3,0.1c0,0,0,0,0,0c1.9-0.4,4.1-1.5,5.1-3.2
				l0.1-0.4l4.3-21C441.5,311,441.5,310.7,441.5,310.5z"/>
			<path class="st38" d="M429.8,335.8c0,0,0,0.1,0,0.1c-0.2,0-0.3-0.1-0.5-0.2C429.4,335.7,429.6,335.8,429.8,335.8z"/>
			<path class="st39" d="M442,334.9c0-0.2-0.1-0.4-0.1-0.6c0,0,0,0,0,0c0.1-0.2-1-1.3-1.2-1.4c0,0-0.9,0.2-1.3,0.2
				c-0.1,0-0.2,0-0.3,0c-0.9,0-1.1-0.6-1.9-0.9l-0.1,0.4c-1,1.7-3.2,2.8-5.1,3.2c0,0,0,0,0,0c-0.9,0.2-1.7,0.2-2.3,0.1
				c-0.2,0-0.3-0.1-0.5-0.2c-0.3-0.1-0.4-0.3-0.5-0.5c-0.2,0.2-0.4,1-0.4,1.5c0,0,0,0,0,0c-0.1,0.3,0,0.8,0,1.1
				c0.1,0.4,0.4,0.5,0.7,0.6c0.6,0.2,1,0.2,2,0.2c0.3,0,1.2-0.1,1.2-0.1c0.3-0.2,0.3-0.6,0.5-0.7c0.5-0.3,1.2,0,1.6,0.1
				c0.4,0.1,0.4,0.1,0.8,0.2c0.3,0,0.7-0.1,1-0.1c0.8-0.2,1.6-0.4,2.4-0.6c1.1-0.4,2.3-0.8,3.3-1.5C442,335.7,442,335.3,442,334.9z"
				/>
			<path class="st27" d="M448.9,287.2c0.6-0.3,1.2-0.7,1.8-1c0.1-0.2,0.2-0.4,0.3-0.6c0.5-0.3,1-0.9,1.4-1.5c0,0,0,0,0,0
				c1-1,1.7-3.7,1.6-5l0,0c-1.2-0.2-2.4-0.7-3.4-1.5c-0.4,0.1-0.7,0.1-1,0.2c0,0-0.1,0-0.1,0c-0.1,0-0.2,0.1-0.3,0.2
				c-0.1,0.1-0.2,0.2-0.3,0.4c-0.2,0.4,0,0.9-0.3,1.4c-0.3,0.4-1,0.7-1.4,0.8c0.6,0.8,1.2,1,1.7,0.7c0.3-0.1,0.5-0.4,0.8-0.8l0,0
				c0,0,0.1-0.1,0.1-0.2c0.1,0.2,0.2,0.3,0.3,0.4c0.2,0.2,0.4,0.3,0.5,0.5c0,0.1,0.1,0.1,0.1,0.2c-0.3,1.3-0.7,2.5-0.8,3.7
				c-0.1,0.1-0.3,0.2-0.5,0.4C449.2,286.1,449,286.6,448.9,287.2z"/>
			
				<linearGradient id="SVGID_27_" gradientUnits="userSpaceOnUse" x1="300.1682" y1="266.1179" x2="293.0004" y2="266.7598" gradientTransform="matrix(-1 0 0 1 749.2805 0)">
				<stop  offset="0" style="stop-color:#6348B0"/>
				<stop  offset="0.9525" style="stop-color:#423075"/>
			</linearGradient>
			<path class="st40" d="M450.7,252.4c0,0,3.3,5.8,8.8,18.2l-5.3,9.6c0,0-4.7,1.5-5.9-1.2c-1.4-3,0,0,0,0l3.6-8.4l-6.5-11.7
				c-0.3-0.5-0.4-1-0.3-1.5C445.2,255.3,446.2,250.2,450.7,252.4z"/>
			
				<linearGradient id="SVGID_28_" gradientUnits="userSpaceOnUse" x1="303.2163" y1="237.0862" x2="319.6538" y2="237.0862" gradientTransform="matrix(-1 0 0 1 749.2805 0)">
				<stop  offset="0" style="stop-color:#7F6BE4"/>
				<stop  offset="1" style="stop-color:#5235E4"/>
			</linearGradient>
			<path class="st41" d="M430.4,233.7c0.3-0.7,1.1-1.3,1.7-1.8c1.4-1.3,3.3-2,5.2-2.2c0.3,0,0.8,0,1.3,0c1.8-0.5,8.4-2.2,7.4-0.1
				c-1.1,2.5-3.9,2.4-3.9,2.4s3.8,1.4,1.5,2.3c0,0-0.1,0-0.1,0.1c0.5,1.6-0.2,2.1-0.2,3c0,1.7,0.3,3,0.4,3.7c-0.2,0-0.6,0.3-0.9,0.5
				c0-0.3-0.1-0.7-0.2-1l0,0c-0.3-1.1-1.7-2.5-1.7-0.5c0,0.1,0,0.3,0.1,0.6c0.1,0.5,0.4,1.3,0.6,1.8c-0.4,0.7-1.3,2.1-1.5,2.7
				c-0.4,0.2-0.8,0.2-1.2,0.3c-0.1,0-0.2,0-0.3,0c-0.4,0-0.8,0-1.3,0c-0.8,0-1.2,0-1.8-0.2c-0.2,0-0.4-0.1-0.6-0.1
				c0-0.3-0.6-1.2-1.2-1.8c-0.1-0.1-0.1-0.1-0.2-0.2c-0.9-1-2-1.9-2.8-3l0,0c-0.3-0.5-0.4-1.2-0.5-1.7c-0.1-0.6-0.2-1.2-0.3-1.8
				c-0.1-0.5-0.1-1-0.1-1.4l0,0C429.7,234.8,430.2,234.1,430.4,233.7z"/>
		</g>
	</g>
	<g>
		<g>
			<g class="st9">
				<g class="st9">
					<defs>
						<path id="SVGID_56_" class="st9" d="M672.5,264.8l-2.8-0.6c0.6,0.1,1.3,0.1,1.9-0.1l2.8,0.6C673.8,265,673.1,265,672.5,264.8z
							"/>
					</defs>
					<clipPath id="SVGID_29_">
						<use xlink:href="#SVGID_56_"  style="overflow:visible;"/>
					</clipPath>
					<g class="st42">
						<path class="st43" d="M672.5,264.8l-2.8-0.6c0.4,0.1,0.7,0.1,1.1,0.1l2.8,0.6C673.2,264.9,672.9,264.9,672.5,264.8"/>
						<path class="st44" d="M673.6,264.9l-2.8-0.6c0.3,0,0.5-0.1,0.8-0.1l2.8,0.6C674.1,264.9,673.9,264.9,673.6,264.9"/>
					</g>
				</g>
				<g class="st9">
					<defs>
						<path id="SVGID_58_" class="st9" d="M672.2,252.2l2.8,0.6c2,0.4,3.5,2.2,3.8,4.7c0.4,3.3-1.6,6.6-4.4,7.3l-2.8-0.6
							c2.8-0.7,4.8-4,4.4-7.3C675.7,254.4,674.1,252.6,672.2,252.2z"/>
					</defs>
					<clipPath id="SVGID_30_">
						<use xlink:href="#SVGID_58_"  style="overflow:visible;"/>
					</clipPath>
					<g class="st45">
						<path class="st44" d="M674.4,264.8l-2.8-0.6c0.8-0.2,1.5-0.6,2.1-1.1l2.8,0.6C675.9,264.2,675.2,264.6,674.4,264.8"/>
						<path class="st43" d="M676.5,263.7l-2.8-0.6c0.4-0.3,0.7-0.7,1-1.1l2.8,0.6C677.2,263,676.8,263.4,676.5,263.7"/>
						<path class="st46" d="M677.5,262.6l-2.8-0.6c0.2-0.3,0.4-0.6,0.6-1l2.8,0.6C677.9,262,677.7,262.3,677.5,262.6"/>
						<path class="st47" d="M678.1,261.6l-2.8-0.6c0.2-0.3,0.3-0.7,0.4-1.1l2.8,0.6C678.4,261,678.2,261.3,678.1,261.6"/>
						<path class="st48" d="M678.5,260.6l-2.8-0.6c0.1-0.4,0.2-0.8,0.3-1.2l2.8,0.6C678.7,259.8,678.6,260.2,678.5,260.6"/>
						<path class="st49" d="M678.8,259.3l-2.8-0.6c0.1-0.6,0.1-1.2,0-1.8c-0.3-2.5-1.8-4.3-3.8-4.7l2.8,0.6c2,0.4,3.5,2.2,3.8,4.7
							C678.9,258.1,678.9,258.7,678.8,259.3"/>
					</g>
				</g>
				<g class="st9">
					<defs>
						<path id="SVGID_60_" class="st9" d="M673.6,245.3l2.8,0.6c-1.3-0.3-2.7-0.2-4.1,0.1l-2.8-0.6
							C670.9,245.1,672.3,245.1,673.6,245.3z"/>
					</defs>
					<clipPath id="SVGID_31_">
						<use xlink:href="#SVGID_60_"  style="overflow:visible;"/>
					</clipPath>
					<g class="st50">
						<path class="st44" d="M672.3,246l-2.8-0.6c0.6-0.1,1.1-0.2,1.7-0.3l2.8,0.6C673.4,245.8,672.9,245.9,672.3,246"/>
						<path class="st43" d="M674,245.7l-2.8-0.6c0.8-0.1,1.6,0,2.4,0.2l2.8,0.6C675.6,245.7,674.8,245.7,674,245.7"/>
					</g>
				</g>
				<g class="st9">
					<defs>
						<path id="SVGID_62_" class="st9" d="M671.1,271.7l-2.8-0.6c-4.2-0.9-7.5-4.8-8.1-10.1c-0.8-7.1,3.4-14,9.4-15.5l2.8,0.6
							c-6,1.5-10.1,8.5-9.4,15.5C663.6,266.9,666.9,270.8,671.1,271.7z"/>
					</defs>
					<clipPath id="SVGID_32_">
						<use xlink:href="#SVGID_62_"  style="overflow:visible;"/>
					</clipPath>
					<g class="st51">
						<path class="st49" d="M671.1,271.7l-2.8-0.6c-4.2-0.9-7.5-4.8-8.1-10.1c-0.1-1.3-0.1-2.6,0.1-3.9l2.8,0.6
							c-0.2,1.3-0.2,2.6-0.1,3.9C663.6,266.9,666.9,270.8,671.1,271.7"/>
						<path class="st48" d="M663,257.7l-2.8-0.6c0.1-0.9,0.3-1.8,0.6-2.7l2.8,0.6C663.3,255.9,663.1,256.7,663,257.7"/>
						<path class="st47" d="M663.6,255l-2.8-0.6c0.2-0.8,0.6-1.5,0.9-2.2l2.8,0.6C664.2,253.5,663.9,254.2,663.6,255"/>
						<path class="st46" d="M664.5,252.8l-2.8-0.6c0.4-0.8,0.8-1.5,1.3-2.1l2.8,0.6C665.3,251.3,664.9,252,664.5,252.8"/>
						<path class="st43" d="M665.8,250.6L663,250c0.6-0.8,1.3-1.6,2.1-2.3l2.8,0.6C667.1,249,666.4,249.8,665.8,250.6"/>
						<path class="st44" d="M667.9,248.4l-2.8-0.6c1.3-1.1,2.8-1.9,4.4-2.3l2.8,0.6C670.7,246.4,669.2,247.2,667.9,248.4"/>
					</g>
				</g>
				<g>
					<path class="st52" d="M672.3,246c5.9-1.5,11.4,3,12.2,10c0.8,7.1-3.4,14-9.4,15.5c-6,1.5-11.4-3-12.2-10
						C662.2,254.5,666.4,247.5,672.3,246z M674.4,264.8c2.8-0.7,4.8-4,4.4-7.3c-0.4-3.3-2.9-5.4-5.7-4.7c-2.8,0.7-4.8,4-4.4,7.3
						C669.1,263.4,671.6,265.5,674.4,264.8"/>
				</g>
			</g>
		</g>
	</g>
	<g>
		<g>
			<g>
				<g class="st9">
					<g>
						
							<linearGradient id="SVGID_33_" gradientUnits="userSpaceOnUse" x1="249.2903" y1="287.7682" x2="67.8796" y2="314.3318" gradientTransform="matrix(-1 0 0 1 749.2805 0)">
							<stop  offset="0" style="stop-color:#6348B0"/>
							<stop  offset="0.9525" style="stop-color:#423075"/>
						</linearGradient>
						<path class="st53" d="M487.7,288.4c-2.4,1.4-2.5,3.5-0.5,4.7l113.6,66c2,1.2,5.6,1.1,8-0.3l79.5-45.9c2.4-1.4,2.5-3.5,0.5-4.7
							l-113.6-66c-2-1.2-5.6-1.1-8,0.3L487.7,288.4z"/>
					</g>
					<g>
						<g class="st9">
							<path class="st54" d="M480.4,291.5l0,2.3c0,0,0,0.1,0,0.1L480.4,291.5C480.4,291.6,480.4,291.6,480.4,291.5"/>
							<path class="st54" d="M480.4,291.6l0,2.3c0,0.2,0,0.4,0.1,0.6l0-2.3C480.4,292,480.4,291.8,480.4,291.6"/>
						</g>
						<g>
							<defs>
								<path id="SVGID_34_" d="M695.6,313.1c0-0.8,0-1.5,0-2.3c0,1.7-1.2,3.5-3.5,4.8l0,2.3C694.5,316.6,695.6,314.8,695.6,313.1z"
									/>
							</defs>
							<use xlink:href="#SVGID_34_"  style="overflow:visible;fill:#9FA1CF;"/>
							<clipPath id="SVGID_35_">
								<use xlink:href="#SVGID_34_"  style="overflow:visible;"/>
							</clipPath>
							<g class="st55">
								<path class="st54" d="M692.1,315.6l0,2.3c2.3-1.3,3.5-3.1,3.5-4.8l0-2.3C695.6,312.5,694.5,314.3,692.1,315.6"/>
							</g>
						</g>
						<g>
							<g class="st9">
								<path class="st54" d="M602.5,363.5"/>
							</g>
							
								<linearGradient id="SVGID_36_" gradientUnits="userSpaceOnUse" x1="244.4157" y1="319.9166" x2="52.9355" y2="347.8332" gradientTransform="matrix(-1 0 0 1 749.2805 0)">
								<stop  offset="0" style="stop-color:#6348B0"/>
								<stop  offset="0.9525" style="stop-color:#423075"/>
							</linearGradient>
							<path class="st56" d="M483.4,295.8l113.6,66c4.2,2.4,11.2,2.3,15.7-0.3l79.5-45.9l0,2.3l-79.5,45.9
								c-4.5,2.6-11.5,2.7-15.7,0.3l-113.6-66c0,0-0.1,0-0.1-0.1v0c-1.9-1.2-2.9-2.6-2.9-4.2l0-2.3
								C480.4,293.1,481.4,294.6,483.4,295.8z"/>
						</g>
					</g>
					
						<linearGradient id="SVGID_37_" gradientUnits="userSpaceOnUse" x1="53.6514" y1="301.1749" x2="268.8983" y2="301.1749" gradientTransform="matrix(-1 0 0 1 749.2805 0)">
						<stop  offset="0" style="stop-color:#6348B0"/>
						<stop  offset="0.9525" style="stop-color:#423075"/>
					</linearGradient>
					<path class="st57" d="M480.4,291.3c0,0.2,0,0.4,0,0.7c0,0.1,0,0.1,0,0.2c0,0.2,0.1,0.3,0.1,0.5c0,0.1,0.1,0.2,0.1,0.2
						c0.1,0.1,0.1,0.3,0.2,0.4c0,0,0,0.1,0,0.1c0,0,0.1,0.1,0.1,0.1c0.1,0.1,0.2,0.3,0.2,0.4c0.1,0.1,0.1,0.2,0.2,0.2
						c0.1,0.1,0.2,0.2,0.3,0.4c0.1,0.1,0.1,0.1,0.2,0.2c0.1,0.1,0.3,0.3,0.4,0.4c0.1,0.1,0.1,0.1,0.2,0.2c0.2,0.2,0.5,0.4,0.8,0.5
						l113.6,66c0.5,0.3,1.1,0.5,1.6,0.8c0.2,0.1,0.4,0.1,0.6,0.2c0.4,0.1,0.8,0.3,1.3,0.4c0.2,0.1,0.5,0.1,0.8,0.1
						c0.4,0.1,0.8,0.1,1.2,0.2c0.3,0,0.6,0,0.9,0.1c0.3,0,0.5,0.1,0.8,0.1c0.1,0,0.2,0,0.3,0c0.5,0,1.1,0,1.6-0.1
						c0.2,0,0.5,0,0.7-0.1c0.9-0.1,1.8-0.3,2.7-0.5c0.5-0.1,1-0.3,1.5-0.5c0.2-0.1,0.4-0.2,0.7-0.3c0.3-0.2,0.7-0.3,1-0.5
						c0.1,0,0.1-0.1,0.2-0.1l79.5-45.9c0.5-0.3,0.9-0.5,1.2-0.8c0,0,0.1-0.1,0.1-0.1c0.3-0.3,0.6-0.6,0.9-0.9c0,0,0.1-0.1,0.1-0.1
						c0,0,0.1-0.1,0.1-0.1c0.1-0.1,0.2-0.2,0.2-0.3c0.1-0.1,0.1-0.2,0.2-0.3c0.1-0.1,0.1-0.2,0.2-0.3c0-0.1,0.1-0.2,0.1-0.3
						c0-0.1,0.1-0.2,0.1-0.3c0-0.1,0.1-0.2,0.1-0.3c0-0.1,0-0.2,0.1-0.4c0-0.1,0-0.1,0-0.2c0,0,0,0,0-0.1c0-0.3,0-0.6,0-0.8
						c0-0.1,0-0.1,0-0.2c-0.1-0.3-0.1-0.5-0.2-0.8c0,0,0-0.1,0-0.1c-0.1-0.3-0.3-0.5-0.5-0.8c0-0.1-0.1-0.1-0.1-0.2
						c-0.2-0.3-0.4-0.5-0.7-0.8c0,0,0,0,0,0c-0.1-0.1-0.3-0.2-0.4-0.3c-0.1-0.1-0.1-0.1-0.2-0.2c-0.2-0.2-0.5-0.3-0.7-0.5l-113.6-66
						c-0.6-0.3-1.2-0.6-1.8-0.8c-0.2-0.1-0.5-0.1-0.7-0.2c-0.4-0.1-0.9-0.3-1.3-0.4c-0.1,0-0.1,0-0.2-0.1c-0.4-0.1-0.9-0.1-1.3-0.2
						c-0.1,0-0.2,0-0.3,0c-0.6-0.1-1.3-0.1-1.9-0.1c-0.2,0-0.4,0-0.6,0c-0.5,0-0.9,0-1.4,0.1c-0.2,0-0.5,0.1-0.7,0.1
						c-0.2,0-0.4,0-0.6,0.1c-0.2,0-0.3,0.1-0.5,0.1c-0.4,0.1-0.8,0.2-1.2,0.3c-0.3,0.1-0.6,0.2-0.9,0.3c-0.4,0.1-0.7,0.3-1.1,0.4
						c-0.2,0.1-0.4,0.1-0.5,0.2c-0.2,0.1-0.4,0.2-0.6,0.3l-79.5,45.9c-0.4,0.2-0.7,0.4-1,0.7c-0.1,0.1-0.2,0.1-0.2,0.2
						c-0.3,0.2-0.6,0.5-0.8,0.7c0,0,0,0,0,0c0,0,0,0,0,0c0,0-0.1,0.1-0.1,0.1c-0.1,0.1-0.3,0.3-0.4,0.5c0,0.1-0.1,0.1-0.1,0.2
						c-0.1,0.1-0.2,0.3-0.3,0.4c0,0.1-0.1,0.2-0.1,0.2c-0.1,0.1-0.1,0.2-0.2,0.4c0,0.1-0.1,0.2-0.1,0.3c0,0.1-0.1,0.2-0.1,0.3
						c0,0,0,0,0,0C480.4,290.8,480.4,291.1,480.4,291.3C480.4,291.3,480.4,291.3,480.4,291.3z M485.8,291c0-0.1,0-0.3,0-0.4
						c0-0.1,0-0.2,0.1-0.3c0-0.1,0.1-0.2,0.1-0.3c0.1-0.1,0.1-0.2,0.2-0.3c0.1-0.1,0.1-0.2,0.2-0.3c0.1-0.1,0.2-0.2,0.4-0.4
						c0.1-0.1,0.1-0.1,0.2-0.1c0.2-0.2,0.4-0.3,0.7-0.5l79.5-45.9c0.2-0.1,0.4-0.2,0.6-0.3c0.2-0.1,0.4-0.2,0.6-0.2
						c0.2-0.1,0.3-0.1,0.5-0.2c0.2-0.1,0.4-0.1,0.6-0.2c0.1,0,0.3-0.1,0.4-0.1c0.5-0.1,1-0.1,1.6-0.2c0.1,0,0.1,0,0.2,0
						c0.5,0,1,0,1.4,0.1c0.1,0,0.2,0,0.3,0c0.2,0,0.4,0.1,0.7,0.2c0.1,0,0.2,0.1,0.3,0.1c0.3,0.1,0.6,0.2,0.9,0.4l113.6,66
						c0.2,0.1,0.5,0.3,0.7,0.5c0,0,0,0,0,0c0.2,0.1,0.3,0.3,0.4,0.5c0,0.1,0.1,0.1,0.1,0.2c0.1,0.1,0.1,0.2,0.2,0.4
						c0,0.1,0,0.1,0.1,0.2c0,0.1,0,0.3,0,0.4c0,0,0,0.1,0,0.1c0,0.1,0,0.2-0.1,0.3c0,0.1-0.1,0.3-0.1,0.4c0,0.1-0.1,0.2-0.2,0.3
						c-0.1,0.1-0.1,0.3-0.3,0.4c-0.1,0.1-0.2,0.2-0.3,0.4c-0.1,0.1-0.1,0.1-0.2,0.2c-0.2,0.2-0.5,0.4-0.8,0.5l-79.5,45.9
						c-0.2,0.1-0.5,0.2-0.7,0.3c-0.1,0-0.2,0.1-0.3,0.1c-0.3,0.1-0.6,0.2-0.9,0.3c0,0-0.1,0-0.1,0c-0.4,0.1-0.8,0.2-1.2,0.2
						c-0.1,0-0.3,0-0.4,0c-0.3,0-0.5,0-0.8,0c-0.2,0-0.4,0-0.6,0c-0.1,0-0.3,0-0.4,0c-0.2,0-0.4-0.1-0.6-0.1c-0.1,0-0.3,0-0.4-0.1
						c-0.2,0-0.4-0.1-0.6-0.2c-0.1,0-0.2-0.1-0.3-0.1c-0.3-0.1-0.5-0.2-0.8-0.4l-113.6-66c-0.3-0.2-0.5-0.3-0.7-0.5
						c-0.1-0.1-0.1-0.1-0.2-0.2c-0.1-0.1-0.2-0.3-0.3-0.4c0-0.1-0.1-0.2-0.1-0.3c-0.1-0.1-0.1-0.3-0.1-0.4
						C485.8,291.2,485.8,291.1,485.8,291z"/>
				</g>
			</g>
			<g>
				<g>
					<g>
						<path class="st2" d="M658.3,303.3c-0.3,0.2,0.4,0.9,1.7,1.7l2.9,1.7c1.3,0.7,2.6,1.2,2.9,1l6.6-3.8c0.3-0.2-0.4-1-1.7-1.7
							l-2.9-1.7c-1.3-0.7-2.6-1.2-2.9-1L658.3,303.3z"/>
					</g>
					<g>
						<path class="st2" d="M649.8,298.2c-0.3,0.2,0.5,1,1.7,1.7l2.9,1.7c1.3,0.8,2.6,1.2,2.9,1l6.6-3.8c0.3-0.2-0.4-0.9-1.7-1.7
							l-2.9-1.7c-1.3-0.7-2.6-1.2-2.9-1L649.8,298.2z"/>
					</g>
					<g>
						<path class="st2" d="M640.3,293.1c-0.3,0.2,0.5,1,1.7,1.7l2.9,1.7c1.3,0.8,2.6,1.2,2.9,1l6.6-3.8c0.3-0.2-0.4-1-1.7-1.7
							l-2.9-1.7c-1.3-0.7-2.6-1.2-2.9-1L640.3,293.1z"/>
					</g>
					<g>
						<path class="st2" d="M631.9,287.9c-0.3,0.2,0.4,0.9,1.7,1.7l2.9,1.7c1.3,0.7,2.6,1.2,2.9,1l6.6-3.8c0.3-0.2-0.5-1-1.7-1.7
							l-2.9-1.7c-1.3-0.8-2.6-1.2-2.9-1L631.9,287.9z"/>
					</g>
					<g>
						<path class="st2" d="M622.4,282.8c-0.3,0.2,0.4,0.9,1.7,1.7l2.9,1.7c1.3,0.7,2.6,1.2,2.9,1l6.6-3.8c0.3-0.2-0.5-1-1.7-1.7
							l-2.9-1.7c-1.3-0.8-2.6-1.2-2.9-1L622.4,282.8z"/>
					</g>
					<g>
						<path class="st2" d="M613.9,277.7c-0.3,0.2,0.4,1,1.7,1.7l2.9,1.7c1.3,0.7,2.6,1.2,2.9,1l6.6-3.8c0.3-0.2-0.5-1-1.7-1.7
							l-2.9-1.7c-1.3-0.7-2.6-1.2-2.9-1L613.9,277.7z"/>
					</g>
					<g>
						<path class="st2" d="M604.9,272.5c-0.3,0.2,0.5,1,1.7,1.7l2.9,1.7c1.3,0.8,2.6,1.2,2.9,1l6.6-3.8c0.3-0.2-0.4-1-1.7-1.7
							l-2.9-1.7c-1.3-0.8-2.6-1.2-2.9-1L604.9,272.5z"/>
					</g>
					<g>
						<path class="st2" d="M596,267.4c-0.3,0.2,0.4,1,1.7,1.7l2.9,1.7c1.3,0.8,2.6,1.2,2.9,1l6.6-3.8c0.3-0.2-0.4-0.9-1.7-1.7
							l-2.9-1.7c-1.3-0.7-2.6-1.2-2.9-1L596,267.4z"/>
					</g>
					<g>
						<path class="st2" d="M587.5,262.3c-0.3,0.2,0.5,1,1.7,1.7l2.9,1.7c1.3,0.8,2.6,1.2,2.9,1l6.6-3.8c0.3-0.2-0.4-1-1.7-1.7
							l-2.9-1.7c-1.3-0.7-2.6-1.2-2.9-1L587.5,262.3z"/>
					</g>
					<g>
						<path class="st2" d="M578.5,257.1c-0.3,0.2,0.4,0.9,1.7,1.7l2.9,1.7c1.3,0.7,2.6,1.2,2.9,1l6.6-3.8c0.3-0.2-0.5-1-1.7-1.7
							l-2.9-1.7c-1.3-0.8-2.6-1.2-2.9-1L578.5,257.1z"/>
					</g>
					<g>
						<path class="st2" d="M570.1,252c-0.3,0.2,0.4,1,1.7,1.7l2.9,1.7c1.3,0.7,2.6,1.2,2.9,1l6.6-3.8c0.3-0.2-0.5-1-1.7-1.7
							l-2.9-1.7c-1.3-0.7-2.6-1.2-2.9-1L570.1,252z"/>
					</g>
				</g>
				<g>
					<g>
						<path class="st2" d="M645.1,305.9c-0.3,0.2,1,1.3,3,2.4l4.5,2.6c2,1.1,3.8,1.9,4.2,1.7l6.6-3.8c0.3-0.2-1-1.3-3-2.4l-4.5-2.6
							c-2-1.1-3.8-1.9-4.2-1.7L645.1,305.9z"/>
					</g>
					<g>
						<path class="st2" d="M636.2,301.3c-0.3,0.2,0.4,1,1.7,1.7l2.9,1.7c1.3,0.8,2.6,1.2,2.9,1l6.6-3.8c0.3-0.2-0.4-0.9-1.7-1.7
							l-2.9-1.7c-1.3-0.7-2.6-1.2-2.9-1L636.2,301.3z"/>
					</g>
					<g>
						<path class="st2" d="M627.8,296.1c-0.3,0.2,0.5,1,1.7,1.7l2.9,1.7c1.3,0.8,2.6,1.2,2.9,1l6.6-3.8c0.3-0.2-0.4-1-1.7-1.7
							l-2.9-1.7c-1.3-0.7-2.6-1.2-2.9-1L627.8,296.1z"/>
					</g>
					<g>
						<path class="st2" d="M618.3,291c-0.3,0.2,0.4,1,1.7,1.7l2.9,1.7c1.3,0.7,2.6,1.2,2.9,1l6.6-3.8c0.3-0.2-0.4-1-1.7-1.7
							l-2.9-1.7c-1.3-0.8-2.6-1.2-2.9-1L618.3,291z"/>
					</g>
					<g>
						<path class="st2" d="M609.8,285.9c-0.3,0.2,0.4,0.9,1.7,1.7l2.9,1.7c1.3,0.7,2.6,1.2,2.9,1l6.6-3.8c0.3-0.2-0.4-1-1.7-1.7
							l-2.9-1.7c-1.3-0.8-2.6-1.2-2.9-1L609.8,285.9z"/>
					</g>
					<g>
						<path class="st2" d="M600.8,280.7c-0.3,0.2,0.4,1,1.7,1.7l2.9,1.7c1.3,0.7,2.6,1.2,2.9,1l6.6-3.8c0.3-0.2-0.5-1-1.7-1.7
							l-2.9-1.7c-1.3-0.7-2.6-1.2-2.9-1L600.8,280.7z"/>
					</g>
					<g>
						<path class="st2" d="M591.9,275.6c-0.3,0.2,0.5,1,1.7,1.7l2.9,1.7c1.3,0.8,2.6,1.2,2.9,1l6.6-3.8c0.3-0.2-0.4-1-1.7-1.7
							l-2.9-1.7c-1.3-0.7-2.6-1.2-2.9-1L591.9,275.6z"/>
					</g>
					<g>
						<path class="st2" d="M583.4,270.5c-0.3,0.2,0.5,1,1.7,1.7l2.9,1.7c1.3,0.8,2.6,1.2,2.9,1l6.6-3.8c0.3-0.2-0.4-1-1.7-1.7
							l-2.9-1.7c-1.3-0.8-2.6-1.2-2.9-1L583.4,270.5z"/>
					</g>
					<g>
						<path class="st2" d="M574.4,265.4c-0.3,0.2,0.5,1,1.7,1.7l2.9,1.7c1.3,0.7,2.6,1.2,2.9,1l6.6-3.8c0.3-0.2-0.4-1-1.7-1.7
							l-2.9-1.7c-1.3-0.7-2.6-1.2-2.9-1L574.4,265.4z"/>
					</g>
					<g>
						<path class="st2" d="M561,257.1c-0.3,0.2,1.1,1.3,3.1,2.5l4.7,2.7c2.1,1.2,4,2,4.3,1.8l6.6-3.8c0.3-0.2-1.1-1.3-3.1-2.5
							l-4.7-2.7c-2.1-1.2-4-2-4.3-1.8L561,257.1z"/>
					</g>
				</g>
				<g>
					<g>
						<path class="st2" d="M639.1,313.5c-0.3,0.2,0.4,1,1.7,1.7l2.9,1.7c1.3,0.7,2.6,1.2,2.9,1l6.6-3.8c0.3-0.2-0.5-1-1.7-1.7
							l-2.9-1.7c-1.3-0.8-2.6-1.2-2.9-1L639.1,313.5z"/>
					</g>
					<g>
						<path class="st2" d="M630.6,308.4c-0.3,0.2,0.4,1,1.7,1.7l2.9,1.7c1.3,0.8,2.6,1.2,2.9,1l6.6-3.8c0.3-0.2-0.4-1-1.7-1.7
							l-2.9-1.7c-1.3-0.8-2.6-1.2-2.9-1L630.6,308.4z"/>
					</g>
					<g>
						<path class="st2" d="M621.1,303.2c-0.3,0.2,0.4,1,1.7,1.7l2.9,1.7c1.3,0.7,2.6,1.2,2.9,1l6.6-3.8c0.3-0.2-0.4-1-1.7-1.7
							l-2.9-1.7c-1.3-0.7-2.6-1.2-2.9-1L621.1,303.2z"/>
					</g>
					<g>
						<path class="st2" d="M612.7,298.1c-0.3,0.2,0.5,1,1.7,1.7l2.9,1.7c1.3,0.8,2.6,1.2,2.9,1l6.6-3.8c0.3-0.2-0.4-1-1.7-1.7
							l-2.9-1.7c-1.3-0.7-2.6-1.2-2.9-1L612.7,298.1z"/>
					</g>
					<g>
						<path class="st2" d="M603.2,293c-0.3,0.2,0.5,1,1.7,1.7l2.9,1.7c1.3,0.8,2.6,1.2,2.9,1l6.6-3.8c0.3-0.2-0.4-1-1.7-1.7
							l-2.9-1.7c-1.3-0.7-2.6-1.2-2.9-1L603.2,293z"/>
					</g>
					<g>
						<path class="st2" d="M594.7,287.8c-0.3,0.2,0.5,1,1.7,1.7l2.9,1.7c1.3,0.8,2.6,1.2,2.9,1l6.6-3.8c0.3-0.2-0.4-1-1.7-1.7
							l-2.9-1.7c-1.3-0.7-2.6-1.2-2.9-1L594.7,287.8z"/>
					</g>
					<g>
						<path class="st2" d="M585.7,282.7c-0.3,0.2,0.4,1,1.7,1.7l2.9,1.7c1.3,0.7,2.6,1.2,2.9,1l6.6-3.8c0.3-0.2-0.5-1-1.7-1.7
							l-2.9-1.7c-1.3-0.8-2.6-1.2-2.9-1L585.7,282.7z"/>
					</g>
					<g>
						<path class="st2" d="M576.7,277.6c-0.3,0.2,0.4,0.9,1.7,1.7l2.9,1.7c1.3,0.7,2.6,1.2,2.9,1l6.6-3.8c0.3-0.2-0.5-1-1.7-1.7
							l-2.9-1.7c-1.3-0.8-2.6-1.2-2.9-1L576.7,277.6z"/>
					</g>
					<g>
						<path class="st2" d="M568.3,272.5c-0.3,0.2,0.4,1,1.7,1.7l2.9,1.7c1.3,0.7,2.6,1.2,2.9,1l6.6-3.8c0.3-0.2-0.5-1-1.7-1.7
							l-2.9-1.7c-1.3-0.8-2.6-1.2-2.9-1L568.3,272.5z"/>
					</g>
					<g>
						<path class="st2" d="M559.3,267.3c-0.3,0.2,0.5,1,1.7,1.7l2.9,1.7c1.3,0.8,2.6,1.2,2.9,1l6.6-3.8c0.3-0.2-0.4-1-1.7-1.7
							l-2.9-1.7c-1.3-0.7-2.6-1.2-2.9-1L559.3,267.3z"/>
					</g>
					<g>
						<path class="st2" d="M550.8,262.2c-0.3,0.2,0.5,1,1.7,1.7l2.9,1.7c1.3,0.8,2.6,1.2,2.9,1l6.6-3.8c0.3-0.2-0.4-0.9-1.7-1.7
							l-2.9-1.7c-1.3-0.7-2.6-1.2-2.9-1L550.8,262.2z"/>
					</g>
				</g>
				<g>
					<g>
						<path class="st2" d="M625.9,316.8c-0.3,0.2,1,1.3,2.9,2.4l4.4,2.6c2,1.1,3.8,1.9,4.1,1.7l6.6-3.8c0.3-0.2-1-1.3-2.9-2.4
							l-4.4-2.6c-2-1.1-3.8-1.9-4.1-1.7L625.9,316.8z"/>
					</g>
					<g>
						<path class="st2" d="M617,311.5c-0.3,0.2,0.5,0.9,1.7,1.7l2.9,1.7c1.3,0.7,2.6,1.2,2.9,1l6.6-3.8c0.3-0.2-0.5-1-1.7-1.7
							l-2.9-1.7c-1.3-0.8-2.6-1.2-2.9-1L617,311.5z"/>
					</g>
					<g>
						<path class="st2" d="M608.5,306.3c-0.3,0.2,0.4,1,1.7,1.7l2.9,1.7c1.3,0.7,2.6,1.2,2.9,1l6.6-3.8c0.3-0.2-0.5-1-1.7-1.7
							l-2.9-1.7c-1.3-0.7-2.6-1.2-2.9-1L608.5,306.3z"/>
					</g>
					<g>
						<path class="st2" d="M599.1,301.2c-0.3,0.2,0.4,1,1.7,1.7l2.9,1.7c1.3,0.7,2.6,1.2,2.9,1l6.6-3.8c0.3-0.2-0.5-1-1.7-1.7
							l-2.9-1.7c-1.3-0.7-2.6-1.2-2.9-1L599.1,301.2z"/>
					</g>
					<g>
						<path class="st2" d="M590.6,296.1c-0.3,0.2,0.4,1,1.7,1.7l2.9,1.7c1.3,0.8,2.6,1.2,2.9,1l6.6-3.8c0.3-0.2-0.4-0.9-1.7-1.7
							l-2.9-1.7c-1.3-0.8-2.6-1.2-2.9-1L590.6,296.1z"/>
					</g>
					<g>
						<path class="st2" d="M581.6,290.9c-0.3,0.2,0.5,1,1.7,1.7l2.9,1.7c1.3,0.7,2.6,1.2,2.9,1l6.6-3.8c0.3-0.2-0.5-1-1.7-1.7
							l-2.9-1.7c-1.3-0.7-2.6-1.2-2.9-1L581.6,290.9z"/>
					</g>
					<g>
						<path class="st2" d="M572.6,285.8c-0.3,0.2,0.4,1,1.7,1.7l2.9,1.7c1.3,0.7,2.6,1.2,2.9,1l6.6-3.8c0.3-0.2-0.4-1-1.7-1.7
							l-2.9-1.7c-1.3-0.8-2.6-1.2-2.9-1L572.6,285.8z"/>
					</g>
					<g>
						<path class="st2" d="M564.2,280.7c-0.3,0.2,0.4,0.9,1.7,1.7l2.9,1.7c1.3,0.7,2.6,1.2,2.9,1l6.6-3.8c0.3-0.2-0.4-1-1.7-1.7
							l-2.9-1.7c-1.3-0.8-2.6-1.2-2.9-1L564.2,280.7z"/>
					</g>
					<g>
						<path class="st2" d="M555.2,275.5c-0.3,0.2,0.4,1,1.7,1.7l2.9,1.7c1.3,0.8,2.6,1.2,2.9,1l6.6-3.8c0.3-0.2-0.4-0.9-1.7-1.7
							l-2.9-1.7c-1.3-0.7-2.6-1.2-2.9-1L555.2,275.5z"/>
					</g>
					<g>
						<path class="st2" d="M541.8,267.2c-0.3,0.2,1.1,1.3,3.1,2.5l4.7,2.7c2.1,1.2,4,2,4.3,1.8l6.6-3.8c0.3-0.2-1.1-1.3-3.1-2.5
							l-4.7-2.7c-2.1-1.2-4-2-4.3-1.8L541.8,267.2z"/>
					</g>
				</g>
				<g>
					<g>
						<path class="st2" d="M623.2,324.8c-0.3,0.2,0.4,1,1.7,1.7l2.9,1.7c1.3,0.7,2.6,1.2,2.9,1l6.6-3.8c0.3-0.2-0.5-1-1.7-1.7
							l-2.9-1.7c-1.3-0.8-2.6-1.2-2.9-1L623.2,324.8z"/>
					</g>
					<g>
						<path class="st2" d="M614.8,319.7c-0.3,0.2,0.4,1,1.7,1.7l2.9,1.7c1.3,0.7,2.6,1.2,2.9,1l6.6-3.8c0.3-0.2-0.5-1-1.7-1.7
							l-2.9-1.7c-1.3-0.7-2.6-1.2-2.9-1L614.8,319.7z"/>
					</g>
					<g>
						<path class="st2" d="M605.3,314.5c-0.3,0.2,0.4,1,1.7,1.7l2.9,1.7c1.3,0.7,2.6,1.2,2.9,1l6.6-3.8c0.3-0.2-0.4-0.9-1.7-1.7
							l-2.9-1.7c-1.3-0.7-2.6-1.2-2.9-1L605.3,314.5z"/>
					</g>
					<g>
						<path class="st2" d="M596.8,309.4c-0.3,0.2,0.5,1,1.7,1.7l2.9,1.7c1.3,0.8,2.6,1.2,2.9,1l6.6-3.8c0.3-0.2-0.4-1-1.7-1.7
							l-2.9-1.7c-1.3-0.7-2.6-1.2-2.9-1L596.8,309.4z"/>
					</g>
					<g>
						<path class="st2" d="M587.3,304.3c-0.3,0.2,0.4,1,1.7,1.7l2.9,1.7c1.3,0.8,2.6,1.2,2.9,1l6.6-3.8c0.3-0.2-0.4-1-1.7-1.7
							l-2.9-1.7c-1.3-0.7-2.6-1.2-2.9-1L587.3,304.3z"/>
					</g>
					<g>
						<path class="st2" d="M578.9,299.2c-0.3,0.2,0.4,0.9,1.7,1.7l2.9,1.7c1.3,0.7,2.6,1.2,2.9,1l6.6-3.8c0.3-0.2-0.4-1-1.7-1.7
							l-2.9-1.7c-1.3-0.8-2.6-1.2-2.9-1L578.9,299.2z"/>
					</g>
					<g>
						<path class="st2" d="M569.9,294c-0.3,0.2,0.4,1,1.7,1.7l2.9,1.7c1.3,0.7,2.6,1.2,2.9,1l6.6-3.8c0.3-0.2-0.5-1-1.7-1.7
							l-2.9-1.7c-1.3-0.8-2.6-1.2-2.9-1L569.9,294z"/>
					</g>
					<g>
						<path class="st2" d="M560.9,288.9c-0.3,0.2,0.5,1,1.7,1.7l2.9,1.7c1.3,0.7,2.6,1.2,2.9,1l6.6-3.8c0.3-0.2-0.4-1-1.7-1.7
							l-2.9-1.7c-1.3-0.7-2.6-1.2-2.9-1L560.9,288.9z"/>
					</g>
					<g>
						<path class="st2" d="M552.4,283.8c-0.3,0.2,0.5,1,1.7,1.7l2.9,1.7c1.3,0.8,2.6,1.2,2.9,1l6.6-3.8c0.3-0.2-0.4-0.9-1.7-1.7
							l-2.9-1.7c-1.3-0.7-2.6-1.2-2.9-1L552.4,283.8z"/>
					</g>
					<g>
						<path class="st2" d="M543.5,278.6c-0.3,0.2,0.5,1,1.7,1.7l2.9,1.7c1.3,0.8,2.6,1.2,2.9,1l6.6-3.8c0.3-0.2-0.4-1-1.7-1.7
							l-2.9-1.7c-1.3-0.7-2.6-1.2-2.9-1L543.5,278.6z"/>
					</g>
					<g>
						<path class="st2" d="M535,273.5c-0.3,0.2,0.5,1,1.7,1.7l2.9,1.7c1.3,0.8,2.6,1.2,2.9,1l6.6-3.8c0.3-0.2-0.5-1-1.7-1.7
							l-2.9-1.7c-1.3-0.8-2.6-1.2-2.9-1L535,273.5z"/>
					</g>
				</g>
				<g>
					<g>
						<path class="st2" d="M610.3,328c-0.3,0.2,0.9,1.2,2.8,2.3l4.3,2.5c1.9,1.1,3.7,1.8,4,1.6l6.6-3.8c0.3-0.2-0.9-1.2-2.8-2.3
							l-4.3-2.5c-1.9-1.1-3.7-1.8-4-1.6L610.3,328z"/>
					</g>
					<g>
						<path class="st2" d="M601.2,322.8c-0.3,0.2,0.5,1,1.7,1.7l2.9,1.7c1.3,0.7,2.6,1.2,2.9,1l6.6-3.8c0.3-0.2-0.5-1-1.7-1.7
							l-2.9-1.7c-1.3-0.7-2.6-1.2-2.9-1L601.2,322.8z"/>
					</g>
					<g>
						<path class="st2" d="M592.7,317.6c-0.3,0.2,0.4,1,1.7,1.7l2.9,1.7c1.3,0.8,2.6,1.2,2.9,1l6.6-3.8c0.3-0.2-0.4-0.9-1.7-1.7
							l-2.9-1.7c-1.3-0.7-2.6-1.2-2.9-1L592.7,317.6z"/>
					</g>
					<g>
						<path class="st2" d="M583.2,312.5c-0.3,0.2,0.5,1,1.7,1.7l2.9,1.7c1.3,0.8,2.6,1.2,2.9,1l6.6-3.8c0.3-0.2-0.4-0.9-1.7-1.7
							l-2.9-1.7c-1.3-0.7-2.6-1.2-2.9-1L583.2,312.5z"/>
					</g>
					<g>
						<path class="st2" d="M574.8,307.4c-0.3,0.2,0.4,1,1.7,1.7l2.9,1.7c1.3,0.8,2.6,1.2,2.9,1l6.6-3.8c0.3-0.2-0.5-1-1.7-1.7
							l-2.9-1.7c-1.3-0.8-2.6-1.2-2.9-1L574.8,307.4z"/>
					</g>
					<g>
						<path class="st2" d="M565.8,302.2c-0.3,0.2,0.4,0.9,1.7,1.7l2.9,1.7c1.3,0.7,2.6,1.2,2.9,1l6.6-3.8c0.3-0.2-0.4-1-1.7-1.7
							l-2.9-1.7c-1.3-0.8-2.6-1.2-2.9-1L565.8,302.2z"/>
					</g>
					<g>
						<path class="st2" d="M556.8,297.1c-0.3,0.2,0.4,1,1.7,1.7l2.9,1.7c1.3,0.7,2.6,1.2,2.9,1l6.6-3.8c0.3-0.2-0.5-1-1.7-1.7
							l-2.9-1.7c-1.3-0.7-2.6-1.2-2.9-1L556.8,297.1z"/>
					</g>
					<g>
						<path class="st2" d="M548.3,292c-0.3,0.2,0.5,1,1.7,1.7l2.9,1.7c1.3,0.8,2.6,1.2,2.9,1l6.6-3.8c0.3-0.2-0.4-1-1.7-1.7
							l-2.9-1.7c-1.3-0.7-2.6-1.2-2.9-1L548.3,292z"/>
					</g>
					<g>
						<path class="st2" d="M539.4,286.8c-0.3,0.2,0.4,1,1.7,1.7l2.9,1.7c1.3,0.8,2.6,1.2,2.9,1l6.6-3.8c0.3-0.2-0.4-0.9-1.7-1.7
							l-2.9-1.7c-1.3-0.7-2.6-1.2-2.9-1L539.4,286.8z"/>
					</g>
					<g>
						<path class="st2" d="M526.3,279.3c-0.3,0.2,1,1.3,2.9,2.4l4.4,2.6c1.9,1.1,3.8,1.9,4.1,1.7l6.6-3.8c0.3-0.2-1-1.3-2.9-2.4
							l-4.4-2.6c-1.9-1.1-3.8-1.9-4.1-1.7L526.3,279.3z"/>
					</g>
				</g>
				<g>
					<path class="st2" d="M531.3,311.7c-0.9,0.5,3.4,3.9,9.6,7.6l14.2,8.2c6.3,3.6,12.1,6.2,13.1,5.6l18.9-10.9
						c0.9-0.5-3.4-3.9-9.6-7.6l-14.2-8.2c-6.3-3.6-12.1-6.2-13.1-5.6L531.3,311.7z"/>
				</g>
			</g>
		</g>
		<g>
			<g>
				<g class="st9">
					<g>
						<path class="st2" d="M576.3,148.1c-1.5-0.8-2.7-0.2-2.7,1.5l-0.2,85.1c0,1.7,1.2,3.7,2.6,4.6l116.4,67.2
							c1.5,0.9,2.7,0.2,2.7-1.5l0.2-85.1c0-1.7-1.2-3.7-2.7-4.6L576.3,148.1z"/>
					</g>
					<g>
						<g>
							<defs>
								<path id="SVGID_38_" d="M573.4,234.8l-3.3-2.1c0,3.9,2.7,8.6,6.1,10.6l-0.1-3.9C574.6,238.5,573.4,236.4,573.4,234.8z"/>
							</defs>
							<use xlink:href="#SVGID_38_"  style="overflow:visible;fill:#B1B2E0;"/>
							<clipPath id="SVGID_39_">
								<use xlink:href="#SVGID_38_"  style="overflow:visible;"/>
							</clipPath>
							<path class="st58" d="M573.4,234.8l-3.3-2.1c0,0.1,0,0.2,0,0.3l3.3,1.9C573.4,234.9,573.4,234.8,573.4,234.8"/>
						</g>
						
							<linearGradient id="SVGID_40_" gradientUnits="userSpaceOnUse" x1="50.2925" y1="227.2634" x2="179.228" y2="227.2634" gradientTransform="matrix(-1 0 0 1 749.2805 0)">
							<stop  offset="0" style="stop-color:#6348B0"/>
							<stop  offset="0.9525" style="stop-color:#423075"/>
						</linearGradient>
						<path class="st59" d="M576,239.3l116.4,67.2c0.2,0.1,0.3,0.2,0.5,0.2c0.1,0,0.1,0,0.2,0c0.1,0,0.2,0.1,0.3,0.1
							c0.1,0,0.1,0,0.2,0c0.1,0,0.2,0,0.3,0c0.1,0,0.1,0,0.2,0c0.1,0,0.2-0.1,0.2-0.1c0,0,0.1,0,0.1-0.1c0.1-0.1,0.2-0.1,0.2-0.2
							c0,0,0.1,0,0.1-0.1c0.1-0.1,0.2-0.2,0.2-0.4c0,0,0-0.1,0-0.1c0-0.1,0.1-0.2,0.1-0.4c0-0.2,0.1-0.4,0.1-0.6l0.2-85.1
							c0-0.2,0-0.5-0.1-0.7c0-0.1,0-0.2-0.1-0.2c0-0.2-0.1-0.4-0.1-0.5c0-0.1-0.1-0.2-0.1-0.3c-0.1-0.2-0.1-0.3-0.2-0.5
							c0-0.1-0.1-0.2-0.1-0.2c-0.1-0.2-0.2-0.4-0.4-0.6c0,0,0-0.1-0.1-0.1c-0.2-0.3-0.4-0.5-0.6-0.7c-0.1-0.1-0.1-0.1-0.2-0.2
							c-0.2-0.2-0.5-0.4-0.7-0.5l-116.4-67.2c-0.2-0.1-0.4-0.2-0.5-0.2c-0.1,0-0.1,0-0.2,0c-0.1,0-0.2-0.1-0.3-0.1c0,0,0,0,0,0
							c-0.2,0-0.4,0-0.6,0.1c0,0-0.1,0-0.1,0c-0.2,0.1-0.3,0.2-0.5,0.3c0,0,0,0,0,0c-0.1,0.1-0.2,0.3-0.3,0.5c0,0.1,0,0.1-0.1,0.2
							c-0.1,0.2-0.1,0.5-0.1,0.7l-0.2,85.1l-3.3-2.1l0.2-85.1c0-0.4,0-0.8,0.1-1.2c0-0.1,0-0.2,0.1-0.3c0.1-0.3,0.1-0.5,0.2-0.7
							c0-0.1,0.1-0.2,0.1-0.3c0.1-0.3,0.3-0.6,0.5-0.8c0,0,0,0,0,0c0.2-0.2,0.4-0.4,0.6-0.5c0.1,0,0.2-0.1,0.2-0.1
							c0.2-0.1,0.4-0.2,0.6-0.2c0.1,0,0.2,0,0.2-0.1c0.3,0,0.6-0.1,0.9,0c0,0,0,0,0,0c0,0,0,0,0,0c0.4,0,0.7,0.1,1.1,0.2
							c0,0,0,0,0,0c0.4,0.1,0.8,0.3,1.2,0.6l116.4,67.2c0.4,0.2,0.8,0.5,1.1,0.8c0.1,0.1,0.2,0.2,0.3,0.3c0.3,0.2,0.5,0.5,0.7,0.7
							c0.1,0.1,0.2,0.2,0.3,0.3c0.3,0.3,0.5,0.6,0.8,1c0,0.1,0.1,0.1,0.1,0.2c0,0,0,0,0,0c0.3,0.4,0.5,0.8,0.8,1.2
							c0.1,0.1,0.1,0.2,0.2,0.3c0.2,0.4,0.5,0.9,0.7,1.3c0,0.1,0,0.1,0.1,0.2c0.2,0.4,0.3,0.8,0.5,1.2c0,0.1,0.1,0.2,0.1,0.2
							c0.1,0.4,0.2,0.9,0.3,1.3c0,0.1,0,0.2,0,0.3c0.1,0.5,0.1,0.9,0.1,1.3l-0.2,85.1c0,0.4,0,0.8-0.1,1.2c0,0.1,0,0.1,0,0.2
							c0,0.1,0,0.1,0,0.2c-0.1,0.2-0.2,0.5-0.2,0.7c0,0.1,0,0.1-0.1,0.2c-0.1,0.3-0.3,0.6-0.5,0.8c-0.1,0.1-0.1,0.1-0.2,0.2
							c-0.2,0.2-0.3,0.3-0.5,0.4c-0.1,0.1-0.2,0.1-0.3,0.1c-0.2,0.1-0.3,0.1-0.5,0.2c-0.1,0-0.2,0.1-0.4,0.1c-0.2,0-0.4,0-0.6,0
							c-0.1,0-0.3,0-0.4,0c-0.2,0-0.5-0.1-0.7-0.2c-0.1,0-0.2-0.1-0.4-0.1c-0.4-0.1-0.8-0.3-1.2-0.5l-116.4-67.2
							c-3.3-1.9-6-6.4-6.1-10.2l3.3,1.9C573.4,236.6,574.6,238.5,576,239.3z"/>
					</g>
					<g>
						<g class="st9">
							<path class="st60" d="M572.4,143.5l0.6-0.3c-0.1,0-0.2,0.1-0.3,0.1l-0.6,0.3C572.2,143.6,572.3,143.5,572.4,143.5"/>
							<path class="st60" d="M572.1,143.6l0.6-0.3c0,0,0,0,0,0L572.1,143.6C572.1,143.6,572.1,143.6,572.1,143.6"/>
						</g>
						<g>
							<defs>
								<path id="SVGID_41_" d="M697,310.9c0.2-0.1,0.4-0.2,0.6-0.3c1.1-0.6,1.8-2,1.8-3.9l-0.6,0.3
									C698.7,308.9,698.1,310.3,697,310.9z"/>
							</defs>
							<use xlink:href="#SVGID_41_"  style="overflow:visible;fill:#9394BA;"/>
							<clipPath id="SVGID_42_">
								<use xlink:href="#SVGID_41_"  style="overflow:visible;"/>
							</clipPath>
							<g class="st61">
								<path class="st60" d="M697,310.9c1.1-0.6,1.8-2,1.8-3.9l0.6-0.3c0,1.9-0.7,3.3-1.8,3.9L697,310.9"/>
							</g>
						</g>
						<path class="st60" d="M572.7,143.3c1.1-0.6,2.7-0.6,4.4,0.4L693.5,211c3.4,2,6.1,6.7,6.1,10.6l-0.2,85.1l-0.6,0.3l0.2-85.1
							c0-3.9-2.7-8.6-6.1-10.6l-116.4-67.2c-1.7-1-3.2-1.1-4.4-0.4C572.3,143.5,572.5,143.4,572.7,143.3z"/>
					</g>
				</g>
			</g>
			<g>
				<g>
					<path class="st22" d="M581.3,226.3c-2.3-1.3-4.1-1.8-4.1-1l0,7.8c0,0.8,1.8,2.4,4.1,3.8l44.5,25.7c2.3,1.3,4.1,1.8,4.1,1l0-7.8
						c0-0.8-1.8-2.4-4.1-3.8L581.3,226.3z"/>
				</g>
				<g>
					<path class="st22" d="M581.8,160.2c-2.3-1.3-4.2-1.9-4.2-1.3l0,6.8c0,0.7,1.9,2.3,4.2,3.6l45.3,26.2c2.3,1.3,4.2,1.9,4.2,1.2
						l0-6.8c0-0.7-1.9-2.3-4.2-3.6L581.8,160.2z"/>
				</g>
				<g>
					<path class="st22" d="M643.7,221.1c-2.2-1.2-3.9,0.7-3.9,4.4l-0.1,38.4c0,3.7,1.7,7.7,3.9,8.9l41.9,24.2
						c2.2,1.2,3.9-0.7,3.9-4.4l0.1-38.4c0-3.7-1.7-7.7-3.9-8.9L643.7,221.1z"/>
				</g>
				<g>
					<g>
						<path class="st22" d="M646.6,208.8c-2-1.1-3.6-1.7-3.6-1.2l0,5c0,0.5,1.6,1.8,3.6,3l38.7,22.3c2,1.1,3.6,1.7,3.6,1.2l0-5
							c0-0.5-1.6-1.8-3.6-2.9L646.6,208.8z"/>
					</g>
				</g>
				<g>
					<path class="st22" d="M657,203.3c-1.5-0.9-2.8-1.2-2.8-0.7l0,5c0,0.5,1.2,1.6,2.8,2.5l29.6,17.1c1.5,0.9,2.8,1.2,2.8,0.7l0-5
						c0-0.5-1.2-1.6-2.7-2.5L657,203.3z"/>
				</g>
				<g>
					<path class="st22" d="M579.3,175.1c-0.7-0.4-1.2,2-1.3,5.4l-0.1,35c0,3.4,0.5,6.4,1.2,6.8l13.4,7.7c0.7,0.4,1.3-2,1.3-5.4
						l0.1-35c0-3.4-0.5-6.4-1.2-6.8L579.3,175.1z"/>
				</g>
				<g>
					<path class="st22" d="M600.5,187.4c-1.4-0.8-2.6,1.1-2.6,4.4l-0.1,33.8c0,3.3,1.2,6.6,2.6,7.4l28.1,16.2
						c1.4,0.8,2.6-1.1,2.6-4.4l0.1-33.8c0-3.3-1.2-6.6-2.6-7.4L600.5,187.4z"/>
				</g>
			</g>
		</g>
	</g>
	<g>
		<g>
			<g>
				
					<linearGradient id="SVGID_43_" gradientUnits="userSpaceOnUse" x1="77.9146" y1="298.7086" x2="86.6228" y2="298.7086" gradientTransform="matrix(-1 0 0 1 749.2805 0)">
					<stop  offset="0.1592" style="stop-color:#4EDAF7"/>
					<stop  offset="1" style="stop-color:#505CC8"/>
				</linearGradient>
				<path class="st62" d="M667.3,310.2c0,0,10-22.9-1.5-22.9C665.8,287.2,657.8,286.7,667.3,310.2z"/>
			</g>
			<g>
				
					<linearGradient id="SVGID_44_" gradientUnits="userSpaceOnUse" x1="81.8973" y1="312.0082" x2="93.4647" y2="312.0082" gradientTransform="matrix(-1 0 0 1 749.2805 0)">
					<stop  offset="0.1592" style="stop-color:#4EDAF7"/>
					<stop  offset="1" style="stop-color:#505CC8"/>
				</linearGradient>
				<path class="st63" d="M667.4,320.5c0,0-2-21-10.5-16.3C656.9,304.2,650.8,307.1,667.4,320.5z"/>
			</g>
			<g>
				
					<linearGradient id="SVGID_45_" gradientUnits="userSpaceOnUse" x1="79.2773" y1="325.4309" x2="98.2939" y2="325.4309" gradientTransform="matrix(-1 0 0 1 749.2805 0)">
					<stop  offset="0.1592" style="stop-color:#4EDAF7"/>
					<stop  offset="1" style="stop-color:#505CC8"/>
				</linearGradient>
				<path class="st64" d="M670,334.2c0,0-9.9-24.3-18.3-15.6C651.7,318.5,645.4,324.2,670,334.2z"/>
			</g>
			<g>
				
					<linearGradient id="SVGID_46_" gradientUnits="userSpaceOnUse" x1="77.4179" y1="339.6154" x2="99.5368" y2="339.6154" gradientTransform="matrix(-1 0 0 1 749.2805 0)">
					<stop  offset="0.1592" style="stop-color:#4EDAF7"/>
					<stop  offset="1" style="stop-color:#505CC8"/>
				</linearGradient>
				<path class="st65" d="M671.9,348.2c0,0-13.4-25.1-21.5-14.8C650.3,333.5,644.2,340.3,671.9,348.2z"/>
			</g>
			<g>
				
					<linearGradient id="SVGID_47_" gradientUnits="userSpaceOnUse" x1="72.5193" y1="358.298" x2="94.3643" y2="358.298" gradientTransform="matrix(-1 0 0 1 749.2805 0)">
					<stop  offset="0.1592" style="stop-color:#4EDAF7"/>
					<stop  offset="1" style="stop-color:#505CC8"/>
				</linearGradient>
				<path class="st66" d="M676.8,369.4c0,0-10-30-20.8-20.3C655.9,349.1,648,355.5,676.8,369.4z"/>
			</g>
			<g>
				
					<linearGradient id="SVGID_48_" gradientUnits="userSpaceOnUse" x1="68.9403" y1="315.7261" x2="80.5081" y2="315.7261" gradientTransform="matrix(-1 0 0 1 749.2805 0)">
					<stop  offset="0.1592" style="stop-color:#4EDAF7"/>
					<stop  offset="1" style="stop-color:#505CC8"/>
				</linearGradient>
				<path class="st67" d="M668.8,324.2c0,0,2-21,10.5-16.3C679.2,307.9,685.4,310.8,668.8,324.2z"/>
			</g>
			<g>
				
					<linearGradient id="SVGID_49_" gradientUnits="userSpaceOnUse" x1="62.6537" y1="331.2671" x2="79.2228" y2="331.2671" gradientTransform="matrix(-1 0 0 1 749.2805 0)">
					<stop  offset="0.1592" style="stop-color:#4EDAF7"/>
					<stop  offset="1" style="stop-color:#505CC8"/>
				</linearGradient>
				<path class="st68" d="M670.1,341.1c0,0,5.8-25.5,15.5-18.4C685.6,322.7,692.7,327.3,670.1,341.1z"/>
			</g>
			<g>
				
					<linearGradient id="SVGID_50_" gradientUnits="userSpaceOnUse" x1="58.5065" y1="345.5004" x2="75.1155" y2="345.5004" gradientTransform="matrix(-1 0 0 1 749.2805 0)">
					<stop  offset="0.1592" style="stop-color:#4EDAF7"/>
					<stop  offset="1" style="stop-color:#505CC8"/>
				</linearGradient>
				<path class="st69" d="M674.2,356.7c0,0,4.2-28.1,15.3-21.2C689.4,335.4,697.5,339.8,674.2,356.7z"/>
			</g>
			<g>
				
					<linearGradient id="SVGID_51_" gradientUnits="userSpaceOnUse" x1="54.1195" y1="358.1393" x2="72.5337" y2="358.1393" gradientTransform="matrix(-1 0 0 1 749.2805 0)">
					<stop  offset="0.1592" style="stop-color:#4EDAF7"/>
					<stop  offset="1" style="stop-color:#505CC8"/>
				</linearGradient>
				<path class="st70" d="M676.7,368.8c0,0,4.9-27.7,17-19.8C693.7,349,702.5,354,676.7,368.8z"/>
			</g>
			<g>
				<path class="st71" d="M667.6,299.2"/>
			</g>
			<path class="st72" d="M660.4,325.9c-0.3-0.2-0.3-0.6-0.1-0.9c0.2-0.3,0.6-0.3,0.9,0c0.2,0.2,4.8,4.3,7.5,7.1
				c-0.3-2.7-0.6-5.2-0.8-7.7c0,0,0,0,0,0c0-0.1-2.2-8-6.7-13.8c-0.2-0.3-0.2-0.7,0.1-0.9c0.3-0.2,0.7-0.2,0.9,0.1
				c2.5,3.2,4.3,6.9,5.4,9.7c-0.7-10.8-0.5-17.9-0.5-18.1c0-0.3,0.3-0.6,0.6-0.6c0.3,0,0.6,0.3,0.6,0.6c0,0.2-0.3,8.5,0.7,20.9
				l4.7-7c0.2-0.3,0.6-0.4,0.9-0.2c0.3,0.2,0.4,0.6,0.2,0.9l-5.6,8.3c0.4,4.5,1,9.4,1.8,14.6c2-3.5,6.5-8.2,6.7-8.4
				c0.2-0.2,0.6-0.3,0.9,0c0.2,0.2,0.3,0.6,0,0.9c-0.1,0.1-6.2,6.5-7.2,9.7c0.8,4.7,1.7,9.6,2.9,14.5c4-6.1,7.1-10.5,7.2-10.6
				c0.2-0.3,0.6-0.3,0.9-0.1c0.3,0.2,0.3,0.6,0.1,0.9c0,0-3.4,4.8-7.6,11.2c-0.1,0.1-0.1,0.2-0.2,0.2c0.7,2.8,1.4,5.5,2.3,8.3
				c1.7-4.3,7.1-9.8,7.9-10.6c0.2-0.2,0.6-0.2,0.9,0c0.2,0.2,0.2,0.6,0,0.9c-3.3,3.3-7.9,9-8.1,11.9c0.2,0.5,0.3,1,0.5,1.5
				c0.1,0.2,0.2,0.4,0.2,0.5c0.2,0.5,0.3,1.1,0.5,1.6c0.1,0.3-0.1,0.7-0.4,0.8c-0.1,0-0.1,0-0.2,0c-0.3,0-0.5-0.2-0.6-0.4
				c-0.2-0.6-0.4-1.2-0.6-1.7c-1.2-0.9-3.9-3.8-11.8-12.4c-0.2-0.3-0.2-0.6,0-0.9c0.3-0.2,0.6-0.2,0.9,0c3.1,3.4,7.6,8.3,10.1,10.8
				c-1.8-5.9-3.3-11.8-4.5-17.5c-2.3-4.5-9.1-8.3-9.2-8.4c-0.3-0.2-0.4-0.5-0.2-0.8c0.2-0.3,0.5-0.4,0.8-0.2c0.2,0.1,5,2.8,8,6.4
				c-0.4-1.9-0.7-3.8-1-5.6c0-0.1,0-0.1,0-0.2c-0.4-2.3-0.7-4.6-1-6.8C667.1,331.8,660.5,326,660.4,325.9z"/>
		</g>
		<g>
			<g>
				
					<linearGradient id="SVGID_52_" gradientUnits="userSpaceOnUse" x1="29.6266" y1="305.2944" x2="43.9503" y2="305.2944" gradientTransform="matrix(-1 0 0 1 749.2805 0)">
					<stop  offset="5.586590e-003" style="stop-color:#CA79E1"/>
					<stop  offset="0.4213" style="stop-color:#C878DF"/>
					<stop  offset="0.5933" style="stop-color:#C174DA"/>
					<stop  offset="0.7202" style="stop-color:#B56DD0"/>
					<stop  offset="0.8249" style="stop-color:#A363C3"/>
					<stop  offset="0.915" style="stop-color:#8C56B2"/>
					<stop  offset="0.9954" style="stop-color:#71479C"/>
					<stop  offset="1" style="stop-color:#6F469B"/>
				</linearGradient>
				<path class="st73" d="M705.3,315.3c0,0,21.4-13.1,11.9-19.7C717.2,295.7,711,290.6,705.3,315.3z"/>
			</g>
			<g>
				
					<linearGradient id="SVGID_53_" gradientUnits="userSpaceOnUse" x1="44.9659" y1="314.1376" x2="52.2689" y2="314.1376" gradientTransform="matrix(-1 0 0 1 749.2805 0)">
					<stop  offset="5.586590e-003" style="stop-color:#CA79E1"/>
					<stop  offset="0.4213" style="stop-color:#C878DF"/>
					<stop  offset="0.5933" style="stop-color:#C174DA"/>
					<stop  offset="0.7202" style="stop-color:#B56DD0"/>
					<stop  offset="0.8249" style="stop-color:#A363C3"/>
					<stop  offset="0.915" style="stop-color:#8C56B2"/>
					<stop  offset="0.9954" style="stop-color:#71479C"/>
					<stop  offset="1" style="stop-color:#6F469B"/>
				</linearGradient>
				<path class="st74" d="M699.5,323.8c0,0,10.4-18.3,0.8-19.3C700.2,304.5,693.5,303.3,699.5,323.8z"/>
			</g>
			<g>
				
					<linearGradient id="SVGID_54_" gradientUnits="userSpaceOnUse" x1="54.0956" y1="324.8051" x2="63.9735" y2="324.8051" gradientTransform="matrix(-1 0 0 1 749.2805 0)">
					<stop  offset="5.586590e-003" style="stop-color:#CA79E1"/>
					<stop  offset="0.4213" style="stop-color:#C878DF"/>
					<stop  offset="0.5933" style="stop-color:#C174DA"/>
					<stop  offset="0.7202" style="stop-color:#B56DD0"/>
					<stop  offset="0.8249" style="stop-color:#A363C3"/>
					<stop  offset="0.915" style="stop-color:#8C56B2"/>
					<stop  offset="0.9954" style="stop-color:#71479C"/>
					<stop  offset="1" style="stop-color:#6F469B"/>
				</linearGradient>
				<path class="st75" d="M693.8,336.5c0,0,5.8-25.5-6-23.3C687.7,313.2,679.4,314.3,693.8,336.5z"/>
			</g>
			<g>
				
					<linearGradient id="SVGID_55_" gradientUnits="userSpaceOnUse" x1="61.6562" y1="336.7123" x2="73.4347" y2="336.7123" gradientTransform="matrix(-1 0 0 1 749.2805 0)">
					<stop  offset="5.586590e-003" style="stop-color:#CA79E1"/>
					<stop  offset="0.4213" style="stop-color:#C878DF"/>
					<stop  offset="0.5933" style="stop-color:#C174DA"/>
					<stop  offset="0.7202" style="stop-color:#B56DD0"/>
					<stop  offset="0.8249" style="stop-color:#A363C3"/>
					<stop  offset="0.915" style="stop-color:#8C56B2"/>
					<stop  offset="0.9954" style="stop-color:#71479C"/>
					<stop  offset="1" style="stop-color:#6F469B"/>
				</linearGradient>
				<path class="st76" d="M687.2,349.1c0,0,3.4-28.2-9.2-24.5C678,324.7,669.1,326.7,687.2,349.1z"/>
			</g>
			<g>
				
					<linearGradient id="SVGID_57_" gradientUnits="userSpaceOnUse" x1="67.407" y1="354.9509" x2="78.8786" y2="354.9509" gradientTransform="matrix(-1 0 0 1 749.2805 0)">
					<stop  offset="5.586590e-003" style="stop-color:#CA79E1"/>
					<stop  offset="0.4213" style="stop-color:#C878DF"/>
					<stop  offset="0.5933" style="stop-color:#C174DA"/>
					<stop  offset="0.7202" style="stop-color:#B56DD0"/>
					<stop  offset="0.8249" style="stop-color:#A363C3"/>
					<stop  offset="0.915" style="stop-color:#8C56B2"/>
					<stop  offset="0.9954" style="stop-color:#71479C"/>
					<stop  offset="1" style="stop-color:#6F469B"/>
				</linearGradient>
				<path class="st77" d="M679.1,369.3c0,0,9-30.3-5.4-28.6C673.7,340.7,663.5,341.3,679.1,369.3z"/>
			</g>
			<g>
				
					<linearGradient id="SVGID_59_" gradientUnits="userSpaceOnUse" x1="32.7179" y1="322.6896" x2="50.8123" y2="322.6896" gradientTransform="matrix(-1 0 0 1 749.2805 0)">
					<stop  offset="5.586590e-003" style="stop-color:#CA79E1"/>
					<stop  offset="0.4213" style="stop-color:#C878DF"/>
					<stop  offset="0.5933" style="stop-color:#C174DA"/>
					<stop  offset="0.7202" style="stop-color:#B56DD0"/>
					<stop  offset="0.8249" style="stop-color:#A363C3"/>
					<stop  offset="0.915" style="stop-color:#8C56B2"/>
					<stop  offset="0.9954" style="stop-color:#71479C"/>
					<stop  offset="1" style="stop-color:#6F469B"/>
				</linearGradient>
				<path class="st78" d="M698.5,327.7c0,0,13.6-16,17.9-7.3C716.4,320.3,719.7,326.2,698.5,327.7z"/>
			</g>
			<g>
				
					<linearGradient id="SVGID_61_" gradientUnits="userSpaceOnUse" x1="36.0645" y1="337.3228" x2="59.4461" y2="337.3228" gradientTransform="matrix(-1 0 0 1 749.2805 0)">
					<stop  offset="5.586590e-003" style="stop-color:#CA79E1"/>
					<stop  offset="0.4213" style="stop-color:#C878DF"/>
					<stop  offset="0.5933" style="stop-color:#C174DA"/>
					<stop  offset="0.7202" style="stop-color:#B56DD0"/>
					<stop  offset="0.8249" style="stop-color:#A363C3"/>
					<stop  offset="0.915" style="stop-color:#8C56B2"/>
					<stop  offset="0.9954" style="stop-color:#71479C"/>
					<stop  offset="1" style="stop-color:#6F469B"/>
				</linearGradient>
				<path class="st79" d="M689.8,342.2c0,0,19.4-17.6,23.3-6.2C713.1,336.1,716.3,343.9,689.8,342.2z"/>
			</g>
			<g>
				
					<linearGradient id="SVGID_63_" gradientUnits="userSpaceOnUse" x1="40.1309" y1="351.1303" x2="65.0021" y2="351.1303" gradientTransform="matrix(-1 0 0 1 749.2805 0)">
					<stop  offset="5.586590e-003" style="stop-color:#CA79E1"/>
					<stop  offset="0.4213" style="stop-color:#C878DF"/>
					<stop  offset="0.5933" style="stop-color:#C174DA"/>
					<stop  offset="0.7202" style="stop-color:#B56DD0"/>
					<stop  offset="0.8249" style="stop-color:#A363C3"/>
					<stop  offset="0.915" style="stop-color:#8C56B2"/>
					<stop  offset="0.9954" style="stop-color:#71479C"/>
					<stop  offset="1" style="stop-color:#6F469B"/>
				</linearGradient>
				<path class="st80" d="M684.3,357.3c0,0,19.5-20.7,24.7-8.6C708.9,348.7,713.1,356.9,684.3,357.3z"/>
			</g>
			<g>
				
					<linearGradient id="SVGID_64_" gradientUnits="userSpaceOnUse" x1="44.353" y1="363.3958" x2="69.8227" y2="363.3958" gradientTransform="matrix(-1 0 0 1 749.2805 0)">
					<stop  offset="5.586590e-003" style="stop-color:#CA79E1"/>
					<stop  offset="0.4213" style="stop-color:#C878DF"/>
					<stop  offset="0.5933" style="stop-color:#C174DA"/>
					<stop  offset="0.7202" style="stop-color:#B56DD0"/>
					<stop  offset="0.8249" style="stop-color:#A363C3"/>
					<stop  offset="0.915" style="stop-color:#8C56B2"/>
					<stop  offset="0.9954" style="stop-color:#71479C"/>
					<stop  offset="1" style="stop-color:#6F469B"/>
				</linearGradient>
				<path class="st81" d="M679.5,368.7c0,0,19.9-19.9,25.3-6.5C704.7,362.2,709,371.4,679.5,368.7z"/>
			</g>
			<g>
				<path class="st71" d="M711.9,306.5"/>
			</g>
			<path class="st82" d="M676.3,352.8c0-0.3,0.2-0.6,0.5-0.7c0.3,0,0.6,0.2,0.7,0.5c0.6,4.5,1.5,11.2,2,14.7
				c1.9-5.9,4-11.5,6.4-16.9c0.7-5-2.7-12.1-2.7-12.1c-0.2-0.3,0-0.7,0.3-0.8c0.3-0.2,0.7,0,0.8,0.3c0.1,0.2,2.5,5.1,2.9,9.8
				c0.8-1.8,1.6-3.5,2.4-5.2c0-0.1,0.1-0.1,0.1-0.2c1-2.1,2.1-4.2,3.1-6.2c-0.2-3.1-2.2-11.7-2.2-11.8c-0.1-0.3,0.1-0.7,0.5-0.7
				c0.3-0.1,0.7,0.1,0.7,0.5c0.1,0.3,1.5,6.3,2,10.1c1.3-2.4,2.5-4.6,3.7-6.7c0,0,0,0,0,0c0-0.1,2.8-7.8,2.4-15.2
				c0-0.3,0.2-0.6,0.6-0.7c0.3,0,0.6,0.2,0.7,0.6c0.2,4-0.4,8.1-1.1,11.1c5.6-9.3,9.9-15,10-15.1c0.2-0.3,0.6-0.3,0.9-0.1
				c0.3,0.2,0.3,0.6,0.1,0.9c-0.1,0.1-5.1,6.8-11.4,17.5l7.9-3c0.3-0.1,0.7,0,0.8,0.4c0.1,0.3,0,0.7-0.4,0.8l-9.3,3.6
				c-2.2,3.9-4.6,8.3-6.9,13c3.7-1.7,10-3,10.3-3.1c0.3-0.1,0.7,0.2,0.7,0.5c0.1,0.3-0.1,0.7-0.5,0.7c-0.1,0-8.8,1.8-11.5,3.8
				c-2.1,4.3-4.1,8.8-6,13.6c6.8-2.7,11.9-4.5,11.9-4.6c0.3-0.1,0.7,0.1,0.8,0.4c0.1,0.3-0.1,0.7-0.4,0.8c-0.1,0-5.5,2-12.6,4.8
				c-0.1,0-0.2,0-0.3,0c-1,2.6-2,5.4-2.9,8.1c3.9-2.5,11.4-4,12.5-4.2c0.3-0.1,0.7,0.2,0.7,0.5c0.1,0.3-0.2,0.7-0.5,0.7
				c-4.6,0.8-11.6,2.8-13.4,5.1c-0.2,0.5-0.3,1-0.5,1.5c0,0.2-0.1,0.3-0.1,0.5c-0.2,0.6-0.3,1.1-0.5,1.7c-0.1,0.3-0.4,0.5-0.8,0.4
				c-0.1,0-0.1-0.1-0.2-0.1c-0.2-0.1-0.3-0.4-0.2-0.7c0.2-0.6,0.3-1.2,0.5-1.7C678.4,368.3,677.8,364.3,676.3,352.8z"/>
		</g>
	</g>
	<g>
		<g class="st9">
			<g>
				
					<linearGradient id="SVGID_65_" gradientUnits="userSpaceOnUse" x1="-153.6028" y1="339.9728" x2="-138.8575" y2="339.9728" gradientTransform="matrix(1 0 0 1 509.673 0)">
					<stop  offset="0" style="stop-color:#7F6BE4"/>
					<stop  offset="1" style="stop-color:#5235E4"/>
				</linearGradient>
				<polygon class="st83" points="370.8,349.9 356.1,341.4 356.1,330 370.8,338.6 				"/>
			</g>
			
				<linearGradient id="SVGID_66_" gradientUnits="userSpaceOnUse" x1="-131.9118" y1="303.968" x2="-142.0025" y2="320.9961" gradientTransform="matrix(1 0 0 1 509.673 0)">
				<stop  offset="0" style="stop-color:#7F6BE4"/>
				<stop  offset="1" style="stop-color:#5235E4"/>
			</linearGradient>
			<path class="st84" d="M384.6,312c0.1-0.5,0.1-0.9,0.1-1.4c0-1.8-0.5-3-1.6-3.6l-14.7-8.6c1,0.6,1.5,1.8,1.6,3.6
				c0,0.6,0,1.1-0.1,1.7c0,0.1,0,0.1,0,0.2c-0.1,0.5-0.2,1.1-0.4,1.6c0,0,0,0,0,0c-0.2,0.6-0.4,1.1-0.7,1.6c0,0,0,0,0,0
				c-0.3,0.5-0.6,1.1-1,1.6c0,0,0,0.1-0.1,0.1c-0.3,0.5-0.7,0.9-1.1,1.4c-0.1,0.1-0.2,0.2-0.3,0.3c-0.4,0.4-0.9,0.9-1.4,1.3
				c0,0,0,0-0.1,0.1c-0.5,0.5-1.1,0.9-1.7,1.3c-0.1,0.1-0.3,0.2-0.4,0.3c-0.6,0.4-1.3,0.9-2,1.3l14.7,8.6c0.7-0.4,1.3-0.9,2-1.3
				c0.2-0.1,0.3-0.2,0.4-0.3c0.6-0.4,1.2-0.9,1.7-1.3c0,0,0,0,0.1-0.1c0.4-0.3,0.7-0.6,1-0.9c0.1-0.1,0.2-0.3,0.4-0.4
				c0.1-0.1,0.2-0.2,0.3-0.4c0.1-0.1,0.2-0.2,0.3-0.3c0.2-0.2,0.4-0.5,0.6-0.7c0.1-0.1,0.2-0.2,0.2-0.3c0,0,0-0.1,0.1-0.1
				c0-0.1,0.1-0.1,0.1-0.2c0.1-0.2,0.2-0.3,0.3-0.5c0.1-0.2,0.2-0.3,0.3-0.5c0.1-0.1,0.2-0.3,0.2-0.4c0,0,0,0,0,0c0,0,0,0,0,0
				c0.1-0.1,0.1-0.3,0.2-0.4c0.1-0.1,0.1-0.3,0.2-0.4c0.1-0.1,0.1-0.3,0.2-0.5c0-0.1,0.1-0.2,0.1-0.3c0,0,0,0,0,0c0,0,0-0.1,0-0.1
				c0.1-0.2,0.1-0.3,0.2-0.5c0.1-0.2,0.1-0.4,0.2-0.6c0-0.1,0-0.2,0.1-0.4c0-0.1,0-0.1,0-0.2C384.6,312.2,384.6,312.1,384.6,312z"/>
			<g>
				
					<linearGradient id="SVGID_67_" gradientUnits="userSpaceOnUse" x1="-163.5863" y1="298.2556" x2="-145.4547" y2="312.4455" gradientTransform="matrix(1 0 0 1 509.673 0)">
					<stop  offset="0" style="stop-color:#7F6BE4"/>
					<stop  offset="1" style="stop-color:#5235E4"/>
				</linearGradient>
				<polygon class="st85" points="371.6,325.5 356.8,316.9 356.8,299.4 371.5,307.9 				"/>
			</g>
			<g class="st9">
				<defs>
					<path id="SVGID_68_" class="st9" d="M375.2,264.6l14.7,8.6c0,0,0.1,0.1,0.1,0.1l-14.7-8.6C375.3,264.7,375.2,264.7,375.2,264.6
						z"/>
				</defs>
				<clipPath id="SVGID_69_">
					<use xlink:href="#SVGID_68_"  style="overflow:visible;"/>
				</clipPath>
				<g class="st86">
					<path d="M390,273.3l-14.7-8.6c0,0-0.1-0.1-0.1-0.1l14.7,8.6C389.9,273.2,390,273.2,390,273.3"/>
				</g>
			</g>
			
				<linearGradient id="SVGID_70_" gradientUnits="userSpaceOnUse" x1="-149.191" y1="286.9725" x2="-116.229" y2="286.9725" gradientTransform="matrix(1 0 0 1 509.673 0)">
				<stop  offset="0" style="stop-color:#7F6BE4"/>
				<stop  offset="1" style="stop-color:#5235E4"/>
			</linearGradient>
			<path class="st87" d="M378.7,282.5C378.7,282.5,378.7,282.5,378.7,282.5c-0.3-0.2-0.6-0.3-0.9-0.4c-0.1,0-0.2-0.1-0.3-0.1
				c-0.2-0.1-0.3-0.1-0.5-0.2c-0.2-0.1-0.5-0.1-0.7-0.2c-0.1,0-0.2-0.1-0.3-0.1c0,0-0.1,0-0.1,0c-0.4-0.1-0.9-0.1-1.3-0.2
				c0,0,0,0,0,0c-0.2,0-0.3,0-0.5,0c-0.4,0-0.7,0-1.1,0c0,0,0,0-0.1,0c-0.6,0-1.2,0.1-1.9,0.2c-0.1,0-0.3,0-0.4,0.1
				c-0.1,0-0.2,0-0.3,0c-1.1,0.2-2.3,0.4-3.5,0.6c-0.1,0-0.2,0-0.3,0.1c-1.3,0.3-2.6,0.6-4,1l-2.2,0.7l14.7,8.6l2.2-0.7
				c1.4-0.4,2.7-0.7,4-1c0.1,0,0.2,0,0.3-0.1c1.2-0.3,2.4-0.5,3.5-0.6c0.2,0,0.4-0.1,0.7-0.1c0.7-0.1,1.3-0.2,1.9-0.2
				c0.4,0,0.8,0,1.1,0c0.2,0,0.4,0,0.5,0c0.5,0,1,0.1,1.4,0.2c0.1,0,0.2,0.1,0.3,0.1c0.4,0.1,0.8,0.2,1.2,0.3
				c0.4,0.2,0.8,0.3,1.2,0.6L378.7,282.5z"/>
			
				<linearGradient id="SVGID_71_" gradientUnits="userSpaceOnUse" x1="-171.0449" y1="322.5782" x2="-138.1218" y2="322.5782" gradientTransform="matrix(1 0 0 1 509.673 0)">
				<stop  offset="0" style="stop-color:#7F6BE4"/>
				<stop  offset="1" style="stop-color:#5235E4"/>
			</linearGradient>
			<path class="st88" d="M370.6,325.9c0.3-0.1,0.6-0.3,1-0.4l-14.7-8.6c-1,0.5-2,0.8-3,1.2c-0.1,0-0.3,0.1-0.4,0.1
				c-0.9,0.3-1.9,0.6-2.8,0.7c-0.9,0.2-1.7,0.3-2.6,0.4c-0.2,0-0.4,0.1-0.6,0.1c-0.8,0.1-1.6,0.2-2.3,0.2c-0.5,0-0.9,0-1.3,0
				c-0.4,0-0.8,0-1.1,0c-0.6,0-1.2-0.1-1.8-0.2c-0.3-0.1-0.5-0.1-0.8-0.2c-0.1,0-0.1,0-0.2-0.1c-0.1,0-0.3-0.1-0.4-0.1
				c-0.2-0.1-0.4-0.1-0.6-0.2c-0.1-0.1-0.3-0.1-0.4-0.2c0,0,0,0,0,0l0,0c0,0,0,0,0,0l14.7,8.6c0,0,0,0,0,0c0.1,0.1,0.2,0.1,0.3,0.2
				c0,0,0,0,0,0c0.2,0.1,0.4,0.1,0.6,0.2c0,0,0,0,0,0c0.1,0,0.3,0.1,0.4,0.1c0.1,0,0.1,0,0.2,0.1c0.2,0.1,0.5,0.1,0.8,0.2
				c0,0,0,0,0.1,0c0.5,0.1,1,0.1,1.5,0.2c0.1,0,0.1,0,0.2,0c0.4,0,0.7,0,1.1,0c0.3,0,0.6,0,0.9,0c0.1,0,0.2,0,0.4,0
				c0.7,0,1.5-0.1,2.3-0.2c0.2,0,0.4,0,0.6-0.1c0.2,0,0.3,0,0.5-0.1c0.7-0.1,1.3-0.2,2-0.4c0.5-0.1,1-0.2,1.6-0.4
				c0.4-0.1,0.8-0.2,1.2-0.4c0.1,0,0.3-0.1,0.4-0.1C369.2,326.4,369.9,326.2,370.6,325.9z"/>
			<g>
				
					<linearGradient id="SVGID_72_" gradientUnits="userSpaceOnUse" x1="-176.4584" y1="330.6556" x2="-156.3572" y2="330.6556" gradientTransform="matrix(1 0 0 1 509.673 0)">
					<stop  offset="0" style="stop-color:#7F6BE4"/>
					<stop  offset="1" style="stop-color:#5235E4"/>
				</linearGradient>
				<polygon class="st89" points="347.9,342.6 333.2,334 338.6,318.7 353.3,327.3 				"/>
			</g>
			
				<linearGradient id="SVGID_73_" gradientUnits="userSpaceOnUse" x1="-159.8919" y1="289.5533" x2="-138.2125" y2="289.5533" gradientTransform="matrix(1 0 0 1 509.673 0)">
				<stop  offset="0" style="stop-color:#7F6BE4"/>
				<stop  offset="1" style="stop-color:#5235E4"/>
			</linearGradient>
			<path class="st90" d="M369.1,294c0.1,0,0.1,0,0.2,0c0.7-0.1,1.4-0.2,2.2-0.4l-14.7-8.6c-0.8,0.2-1.5,0.3-2.2,0.4
				c-0.3,0-0.5,0.1-0.8,0.1c-0.3,0-0.6,0.1-0.9,0.1c-0.5,0-0.9,0-1.3,0c0,0,0,0,0,0c-0.4,0-0.8-0.1-1.2-0.2
				c-0.2-0.1-0.4-0.1-0.6-0.2l14.7,8.6c0,0,0,0,0,0c0.1,0,0.2,0.1,0.3,0.1c0.1,0,0.2,0.1,0.3,0.1c0,0,0,0,0,0c0.1,0,0.3,0.1,0.5,0.1
				c0.2,0,0.5,0.1,0.7,0.1c0,0,0,0,0,0c0,0,0,0,0,0c0.3,0,0.7,0,1.1,0c0.1,0,0.1,0,0.2,0c0.3,0,0.6-0.1,0.9-0.1
				C368.7,294,368.9,294,369.1,294z"/>
			<g>
				
					<linearGradient id="SVGID_74_" gradientUnits="userSpaceOnUse" x1="-146.5284" y1="280.5316" x2="-122.5632" y2="291.2529" gradientTransform="matrix(1 0 0 1 509.673 0)">
					<stop  offset="0" style="stop-color:#7F6BE4"/>
					<stop  offset="1" style="stop-color:#5235E4"/>
				</linearGradient>
				<polygon class="st91" points="371.5,293.5 356.7,284.9 356.7,268.4 371.4,277 				"/>
			</g>
			
				<linearGradient id="SVGID_75_" gradientUnits="userSpaceOnUse" x1="-148.4727" y1="255.8554" x2="-114.2787" y2="255.8554" gradientTransform="matrix(1 0 0 1 509.673 0)">
				<stop  offset="0" style="stop-color:#7F6BE4"/>
				<stop  offset="1" style="stop-color:#5235E4"/>
			</linearGradient>
			<path class="st92" d="M392,258.3c0.3,0,0.6,0,0.8,0.1c0.5,0,0.9,0.1,1.4,0.2c0.4,0.1,0.8,0.1,1.2,0.2l0,0h0l-14.7-8.6
				c-0.2,0-0.5-0.1-0.7-0.1c-0.2,0-0.3,0-0.5-0.1c-0.4-0.1-0.9-0.1-1.4-0.2c-0.2,0-0.3,0-0.5-0.1c-0.1,0-0.3,0-0.4,0
				c-0.7,0-1.4,0-2.2,0c-0.1,0-0.3,0-0.4,0c0,0-0.1,0-0.1,0c-0.8,0-1.7,0.1-2.5,0.2c-0.2,0-0.4,0.1-0.7,0.1c-0.2,0-0.5,0.1-0.7,0.2
				c-0.6,0.1-1.2,0.2-1.8,0.4c-0.2,0-0.3,0.1-0.5,0.1c-0.3,0.1-0.6,0.2-0.9,0.3c-0.3,0.1-0.5,0.2-0.8,0.3c-0.7,0.2-1.4,0.5-2.1,0.8
				c-0.2,0.1-0.3,0.1-0.5,0.2c0,0-0.1,0-0.1,0c-0.9,0.4-1.8,0.8-2.7,1.2l14.7,8.6c1-0.5,1.9-0.9,2.8-1.3c0.2-0.1,0.3-0.1,0.5-0.2
				c0.7-0.3,1.4-0.5,2.1-0.8c0.3-0.1,0.5-0.2,0.8-0.3c0.5-0.1,1-0.3,1.4-0.4c0.6-0.2,1.2-0.3,1.8-0.4c0.5-0.1,0.9-0.2,1.4-0.2
				c0.9-0.1,1.7-0.2,2.5-0.2c0.2,0,0.3,0,0.5,0C390.5,258.3,391.3,258.3,392,258.3z"/>
			
				<linearGradient id="SVGID_76_" gradientUnits="userSpaceOnUse" x1="-151.7933" y1="282.976" x2="-178.754" y2="281.7147" gradientTransform="matrix(1 0 0 1 509.673 0)">
				<stop  offset="0" style="stop-color:#7F6BE4"/>
				<stop  offset="1" style="stop-color:#5235E4"/>
			</linearGradient>
			<path class="st93" d="M367,267.9c1.2-0.9,2.4-1.8,3.6-2.7c0,0,0,0,0,0l0,0l0,0l-14.7-8.6c-1.2,0.8-2.4,1.7-3.6,2.7
				c-0.1,0.1-0.2,0.2-0.3,0.3c-1.1,0.9-2.2,1.9-3.2,2.9c-0.1,0.1-0.2,0.2-0.3,0.3c-0.2,0.2-0.4,0.4-0.6,0.6
				c-0.7,0.7-1.3,1.4-1.9,2.1c0,0-0.1,0.1-0.1,0.1c-0.3,0.3-0.6,0.7-0.8,1c-0.2,0.3-0.5,0.6-0.7,0.9c0,0-0.1,0.1-0.1,0.1
				c-0.4,0.6-0.8,1.1-1.2,1.7c0,0-0.1,0.1-0.1,0.1c-0.1,0.1-0.2,0.3-0.3,0.4c-0.2,0.3-0.5,0.7-0.7,1c-0.2,0.3-0.4,0.6-0.5,0.8
				c-0.2,0.3-0.3,0.5-0.5,0.8c-0.3,0.5-0.5,1-0.8,1.4c0,0,0,0,0,0c0,0,0,0,0,0.1c-0.2,0.5-0.5,0.9-0.7,1.4c-0.1,0.2-0.2,0.4-0.3,0.6
				c-0.1,0.2-0.1,0.3-0.2,0.5c-0.1,0.1-0.1,0.3-0.2,0.4c-0.2,0.5-0.5,1.1-0.7,1.6c0,0,0,0,0,0.1c0,0.1-0.1,0.2-0.1,0.2
				c-0.2,0.5-0.4,1-0.5,1.5c-0.1,0.2-0.2,0.5-0.2,0.7c-0.1,0.3-0.2,0.7-0.3,1c-0.1,0.3-0.2,0.6-0.2,1c-0.1,0.2-0.1,0.5-0.2,0.7
				c0,0.1-0.1,0.2-0.1,0.3c-0.1,0.3-0.1,0.6-0.1,0.9c-0.1,0.5-0.2,1-0.3,1.5c0,0.1,0,0.2-0.1,0.3c-0.1,0.4-0.1,0.8-0.1,1.2
				c0,0.3-0.1,0.5-0.1,0.8c-0.1,0.8-0.1,1.6-0.1,2.4c0,2.8,0.4,5,1.1,6.6c0.6,1.3,1.6,2.4,2.7,3.1l14.7,8.6
				c-1.2-0.7-2.1-1.7-2.7-3.1c-0.7-1.6-1.1-3.8-1.1-6.6c0-0.8,0-1.6,0.1-2.4c0-0.3,0.1-0.5,0.1-0.8c0-0.5,0.1-1,0.2-1.5
				c0.1-0.5,0.2-1,0.3-1.5c0.1-0.4,0.1-0.8,0.2-1.2c0.1-0.2,0.1-0.5,0.2-0.7c0.2-0.7,0.3-1.3,0.5-2c0.2-0.8,0.5-1.5,0.8-2.2
				c0-0.1,0.1-0.2,0.1-0.2c0.3-0.7,0.6-1.4,0.9-2.1c0.1-0.2,0.1-0.3,0.2-0.5c0.3-0.7,0.6-1.3,1-2c0,0,0,0,0-0.1
				c0.4-0.8,0.8-1.5,1.3-2.2c0.4-0.6,0.8-1.3,1.2-1.9c0.1-0.1,0.2-0.3,0.3-0.4c0.5-0.6,0.9-1.3,1.4-1.9c0.2-0.3,0.5-0.6,0.7-0.8
				c0.3-0.4,0.6-0.8,0.9-1.1c0.6-0.7,1.2-1.4,1.9-2.1c0.3-0.3,0.6-0.5,0.8-0.8c1-1,2.1-2,3.2-2.9C366.8,268,366.9,267.9,367,267.9z"
				/>
			<g>
				
					<linearGradient id="SVGID_77_" gradientUnits="userSpaceOnUse" x1="-153.8403" y1="248.9399" x2="-133.7887" y2="248.9399" gradientTransform="matrix(1 0 0 1 509.673 0)">
					<stop  offset="0" style="stop-color:#7F6BE4"/>
					<stop  offset="1" style="stop-color:#5235E4"/>
				</linearGradient>
				<polygon class="st94" points="370.5,254.8 355.8,246.2 361.2,243.1 375.9,251.7 				"/>
			</g>
			<g>
				
					<linearGradient id="SVGID_78_" gradientUnits="userSpaceOnUse" x1="-143.7762" y1="249.8163" x2="-147.2448" y2="257.3841" gradientTransform="matrix(1 0 0 1 509.673 0)">
					<stop  offset="0" style="stop-color:#7F6BE4"/>
					<stop  offset="1" style="stop-color:#5235E4"/>
				</linearGradient>
				<polygon class="st95" points="370.6,265.2 355.9,256.6 355.8,246.2 370.5,254.8 				"/>
			</g>
			<g>
				<path class="st2" d="M396.3,294c1,1.7,1.4,4.3,1.5,7.6c0,3.7-0.6,7.3-1.7,10.6c-1.2,3.3-2.7,6.4-4.7,9.3c-2,2.9-4.3,5.5-6.9,7.8
					c-2.6,2.4-5.4,4.5-8.3,6.3l0,11.2l-5.3,3.1l0-11.3c-4.1,2-8.2,3.4-12.1,4.1c-3.9,0.7-7.5,0.6-10.7-0.1l5.4-15.3
					c0.5,0.3,1.3,0.5,2.4,0.7c1.2,0.2,2.6,0.3,4.2,0.2c1.6-0.1,3.4-0.3,5.4-0.7c2-0.4,4-1.1,6.2-2l0-17.6c-0.5,0.2-1.1,0.3-1.6,0.5
					c-0.5,0.1-1.1,0.3-1.6,0.4c-3,0.8-5.6,1.3-7.9,1.4c-2.2,0.2-4.1-0.1-5.6-0.8c-1.5-0.7-2.6-1.8-3.3-3.4c-0.7-1.6-1.1-3.8-1.1-6.6
					c0-3.4,0.5-6.7,1.5-10c1-3.3,2.4-6.4,4.3-9.4c1.8-3,3.9-5.7,6.4-8.2c2.5-2.5,5.1-4.7,8-6.7l0-10.4l5.3-3.1l0,10.3
					c3.9-1.9,7.5-3.1,10.8-3.5c3.3-0.4,6.2-0.3,8.7,0.2l-5.4,14.6c-0.4-0.3-1-0.5-2-0.6c-1-0.1-2.1-0.2-3.5-0.1
					c-1.3,0.1-2.8,0.3-4.4,0.6c-1.6,0.3-3.3,0.9-5,1.7l0,17.7l2.2-0.7c3.1-0.8,5.9-1.4,8.4-1.8c2.5-0.4,4.7-0.2,6.4,0.4
					C394,291.1,395.3,292.3,396.3,294z M375.3,323.5c6.3-3.8,9.4-8.1,9.4-12.9c0-2.3-0.8-3.6-2.5-4c-1.7-0.3-4-0.2-6.9,0.4
					L375.3,323.5 M371.5,293.5l0-16.5c-5.6,3.7-8.4,8-8.4,13c0,2.3,0.7,3.7,2.1,4C366.5,294.3,368.6,294.2,371.5,293.5"/>
			</g>
		</g>
	</g>
	<g>
		<g class="st9">
			
				<linearGradient id="SVGID_79_" gradientUnits="userSpaceOnUse" x1="617.6206" y1="332.8556" x2="630.7305" y2="332.8556" gradientTransform="matrix(1 0 0 1 12.2091 0)">
				<stop  offset="0.1592" style="stop-color:#4EDAF7"/>
				<stop  offset="1" style="stop-color:#505CC8"/>
			</linearGradient>
			<path class="st96" d="M642.9,333.4l-7.2-4.2c0,0,0,0,0,0c-0.1,0-0.1-0.1-0.2-0.1c-0.1,0-0.1-0.1-0.2-0.1c-0.1,0-0.1,0-0.2,0
				c0,0,0,0,0,0c0,0,0,0,0,0c-0.1,0-0.2,0-0.2,0c-0.1,0-0.2,0-0.3,0c0,0-0.1,0-0.1,0c0,0,0,0-0.1,0c0,0-0.1,0-0.1,0
				c-0.1,0-0.2,0-0.4,0.1c-0.1,0-0.1,0-0.2,0.1c0,0-0.1,0-0.1,0.1c0,0-0.1,0-0.1,0c-0.2,0.1-0.4,0.2-0.6,0.3
				c-0.3,0.1-0.5,0.3-0.7,0.5c-0.1,0.1-0.2,0.1-0.2,0.2c-0.1,0.1-0.3,0.2-0.4,0.4c0,0-0.1,0.1-0.1,0.1c0,0-0.1,0.1-0.1,0.1
				c-0.1,0.1-0.2,0.2-0.2,0.3c-0.1,0.1-0.2,0.3-0.3,0.4c0,0,0,0,0,0.1c0,0,0,0,0,0.1c-0.1,0.1-0.1,0.2-0.2,0.3
				c-0.1,0.1-0.2,0.2-0.2,0.4c-0.1,0.1-0.1,0.2-0.2,0.3l7.2,4.2c0.2-0.3,0.4-0.6,0.6-0.9c0,0,0,0,0-0.1c0.2-0.3,0.4-0.5,0.6-0.7
				c0,0,0.1-0.1,0.1-0.1c0.2-0.2,0.3-0.3,0.5-0.5c0.1-0.1,0.2-0.1,0.2-0.2c0.2-0.2,0.5-0.4,0.7-0.5c0.2-0.1,0.5-0.3,0.7-0.3
				c0,0,0.1,0,0.1-0.1c0.2-0.1,0.5-0.1,0.7-0.2c0,0,0,0,0.1,0c0.2,0,0.5,0,0.7,0c0,0,0,0,0,0C642.5,333.2,642.7,333.3,642.9,333.4
				L642.9,333.4C642.9,333.4,642.9,333.4,642.9,333.4z"/>
			<g>
				
					<linearGradient id="SVGID_80_" gradientUnits="userSpaceOnUse" x1="595.963" y1="353.046" x2="624.863" y2="353.046" gradientTransform="matrix(1 0 0 1 12.2091 0)">
					<stop  offset="0.1592" style="stop-color:#4EDAF7"/>
					<stop  offset="1" style="stop-color:#505CC8"/>
				</linearGradient>
				<polygon class="st97" points="615.4,373.5 608.2,369.3 629.8,332.6 637.1,336.8 				"/>
			</g>
			<g>
				<polygon class="st98" points="609.5,370.1 602.3,365.9 608.2,369.3 615.4,373.5 				"/>
			</g>
			
				<linearGradient id="SVGID_81_" gradientUnits="userSpaceOnUse" x1="582.9564" y1="372.9734" x2="597.2908" y2="372.9734" gradientTransform="matrix(1 0 0 1 12.2091 0)">
				<stop  offset="0.1592" style="stop-color:#4EDAF7"/>
				<stop  offset="1" style="stop-color:#505CC8"/>
			</linearGradient>
			<path class="st99" d="M602.6,379.1c0-0.1-0.1-0.2-0.1-0.3c0-0.2-0.1-0.4-0.1-0.6c0-0.1,0-0.2,0-0.4c0-0.2,0-0.5,0-0.7
				c0-0.1,0-0.2,0-0.4c0,0,0-0.1,0-0.1c0-0.3,0.1-0.6,0.2-0.9c0,0,0,0,0-0.1c0.1-0.3,0.2-0.7,0.4-1c0,0,0,0,0,0
				c0.2-0.4,0.3-0.7,0.5-1.1c0.2-0.3,0.4-0.6,0.6-0.9c0,0,0,0,0.1-0.1c0.2-0.3,0.4-0.5,0.6-0.7c0,0,0.1-0.1,0.1-0.1
				c0.2-0.2,0.3-0.3,0.5-0.5c0.1-0.1,0.2-0.1,0.2-0.2c0.2-0.2,0.5-0.4,0.8-0.5c0.2-0.1,0.5-0.3,0.7-0.3c0,0,0.1,0,0.1-0.1
				c0.2-0.1,0.4-0.1,0.7-0.2c0,0,0,0,0.1,0c0.2,0,0.5,0,0.7,0c0,0,0,0,0,0c0.2,0,0.4,0.1,0.6,0.2l-7.2-4.2c0,0,0,0,0,0
				c-0.1,0-0.1-0.1-0.2-0.1c-0.1,0-0.1-0.1-0.2-0.1c-0.1,0-0.1,0-0.2,0c0,0,0,0,0,0c0,0,0,0,0,0c-0.1,0-0.2,0-0.2,0
				c-0.1,0-0.2,0-0.3,0c0,0-0.1,0-0.2,0c0,0,0,0-0.1,0c0,0-0.1,0-0.1,0c-0.1,0-0.2,0-0.4,0.1c-0.1,0-0.1,0-0.2,0.1
				c0,0-0.1,0-0.1,0.1c0,0-0.1,0-0.1,0c-0.2,0.1-0.4,0.2-0.6,0.3c-0.3,0.1-0.5,0.3-0.8,0.5c-0.1,0.1-0.2,0.1-0.2,0.2
				c-0.1,0.1-0.3,0.2-0.4,0.4c0,0-0.1,0.1-0.1,0.1c0,0-0.1,0.1-0.1,0.1c-0.1,0.1-0.1,0.2-0.2,0.2c-0.1,0.1-0.2,0.3-0.3,0.4
				c0,0-0.1,0.1-0.1,0.1c0,0,0,0-0.1,0.1c0,0.1-0.1,0.1-0.1,0.2c-0.1,0.1-0.2,0.2-0.2,0.4c-0.1,0.1-0.1,0.2-0.2,0.4c0,0,0,0,0,0
				c-0.1,0.1-0.1,0.2-0.2,0.3c-0.1,0.1-0.1,0.2-0.2,0.4c-0.1,0.1-0.1,0.2-0.2,0.4c0,0,0,0,0,0c0,0,0,0,0,0c0,0.1-0.1,0.2-0.1,0.3
				c-0.1,0.1-0.1,0.3-0.1,0.4c0,0.1-0.1,0.2-0.1,0.3c0,0,0,0,0,0.1c0,0,0,0.1,0,0.1c0,0.2-0.1,0.3-0.1,0.5c0,0.1,0,0.2-0.1,0.3
				c0,0,0,0.1,0,0.1c0,0,0,0.1,0,0.1c0,0.1,0,0.2,0,0.2c0,0.3,0,0.5,0,0.7c0,0.1,0,0.2,0,0.4c0,0.2,0.1,0.4,0.1,0.6
				c0,0.1,0.1,0.2,0.1,0.3c0.1,0.2,0.2,0.3,0.3,0.5c0,0.1,0.1,0.2,0.1,0.2c0.2,0.2,0.4,0.4,0.6,0.5l7.2,4.2
				c-0.2-0.1-0.4-0.3-0.6-0.5c-0.1-0.1-0.1-0.1-0.1-0.2C602.8,379.4,602.7,379.2,602.6,379.1z"/>
			<g>
				<path class="st2" d="M640,333.7c1.1-0.6,2.2-0.8,3-0.3c1.6,1,1.6,4-0.1,6.8L618.3,382c-0.8,1.4-1.9,2.4-2.9,3
					c-1.1,0.6-2.1,0.8-3,0.3l-8.8-5.1c-1.6-0.9-1.6-4,0-6.8c0.8-1.4,1.9-2.5,2.9-3.1c1.1-0.6,2.1-0.8,3-0.3l5.9,3.4l21.7-36.8
					C637.9,335.4,638.9,334.3,640,333.7z"/>
			</g>
		</g>
	</g>
</g>
<g id="DESIGNED_BY_FREEPIK">
</g>
</svg>
